<svg width="23" height="292" viewBox="0 0 23 292" fill="none" xmlns="http://www.w3.org/2000/svg">
<path d="M4.736 12.152C4.736 21.296 10.832 23.12 14.192 23.12L22.856 23.12L22.856 17.528L14.528 17.528C12.224 17.528 9.368 16.472 9.368 11.672C9.368 6.8 12.224 5.768 14.528 5.768L22.856 5.768L22.856 0.152L14.192 0.151999C10.832 0.151999 4.736 1.712 4.736 11.288L4.736 12.152ZM5 27.7936L5 33.1456L11.096 33.1456C13.208 33.1456 14.6 34.7056 14.6 37.1056C14.6 39.4816 13.376 40.5616 11.384 40.5616L5 40.5616L5 45.9616L13.16 45.9616C15.656 45.9616 18.2 44.1856 18.2 39.6736L18.2 39.5056C18.2 35.6656 16.352 33.7456 15.704 33.0976L17.912 33.0976L17.912 27.7936L5 27.7936ZM22.856 55.9128L22.856 50.5608L19.16 50.5608L19.16 55.9128L22.856 55.9128ZM17.912 55.9128L17.912 50.5608L5 50.5608L5 55.9128L17.912 55.9128ZM5 70.13L8.552 70.13L8.552 68.666C8.552 67.73 8.984 67.586 9.68 67.586L14.36 67.586L14.36 70.13L17.912 70.13L17.912 67.586L21.68 67.586L21.68 62.306L17.912 62.306L17.912 59.786L14.36 59.786L14.36 62.306L8.672 62.306C6.44 62.306 5 63.17 5 65.498L5 70.13ZM15.272 83.3C15.272 86.012 14.456 87.26 13.088 87.62L13.088 78.98C14.456 79.388 15.272 80.588 15.272 83.276L15.272 83.3ZM9.56 92.948L9.56 87.668C9.248 87.596 7.904 87.02 7.904 83.468L7.904 83.444C7.904 80.492 8.912 79.196 10.424 78.884L10.424 93.02L11.312 93.02C14.456 93.02 18.272 91.628 18.272 84.044L18.272 82.58C18.272 75.596 15.08 73.628 11.768 73.628L11.24 73.628C7.856 73.628 4.64 75.836 4.64 82.724L4.64 84.092C4.64 91.796 7.784 92.948 9.536 92.948L9.56 92.948ZM11.432 111.226C9.776 111.226 8.096 109.546 8.096 106.378L8.096 106.258C8.096 103.114 9.872 101.914 11.432 101.914L11.528 101.914C13.208 101.914 14.84 102.85 14.84 106.21L14.84 106.33C14.84 109.498 13.208 111.226 11.528 111.226L11.432 111.226ZM22.856 111.226L16.184 111.226C16.712 110.626 18.224 108.778 18.224 104.746L18.224 104.362C18.224 98.5781 15.248 96.4421 11.792 96.4421L11.336 96.4421C7.712 96.4421 4.688 98.8421 4.688 104.578L4.688 104.89C4.688 109.042 6.464 110.914 6.968 111.274L5 111.274L4.99999 116.602L22.856 116.602L22.856 111.226ZM4.99999 136.877L13.424 136.877L4.99999 146.309L4.99999 153.605L14.696 142.853L22.856 153.125L22.856 146.021L15.416 136.877L22.856 136.877L22.856 131.285L4.99999 131.285L4.99999 136.877ZM22.856 162.024L22.856 156.672L19.16 156.672L19.16 162.024L22.856 162.024ZM17.912 162.024L17.912 156.672L4.99999 156.672L4.99999 162.024L17.912 162.024ZM4.99999 166.689L4.99999 172.041L11.096 172.041C13.208 172.041 14.6 173.601 14.6 176.001C14.6 178.377 13.376 179.457 11.384 179.457L4.99999 179.457L4.99999 184.857L13.16 184.857C15.656 184.857 18.2 183.081 18.2 178.569L18.2 178.401C18.2 174.561 16.352 172.641 15.704 171.993L17.912 171.993L17.912 166.689L4.99999 166.689ZM14.864 198.864C14.864 202.224 13.472 203.736 11.936 203.736L11.84 203.736C10.352 203.736 8.86399 202.248 8.86399 198.864L8.86399 198.72C8.86399 195.432 10.4 194.304 11.864 194.304L11.984 194.304C13.424 194.304 14.864 195.264 14.864 198.72L14.864 198.864ZM0.319991 200.136C0.319991 208.056 5.02399 209.208 7.35199 209.208L17.912 209.208L17.912 203.832L16.184 203.832C16.832 203.136 18.224 201.408 18.224 197.112L18.224 196.608C18.224 190.872 15.344 188.856 12.224 188.856L11.744 188.856C8.40799 188.856 5.57599 191.232 5.57599 197.28L5.57599 197.568C5.57599 201.624 6.94399 203.208 7.51999 203.856C5.86399 203.856 3.79999 203.232 3.79999 199.248L3.79999 199.176C3.79999 195.504 4.68799 195.12 4.99999 195.048L4.99999 189.648L4.92799 189.648C3.89599 189.648 0.319991 190.32 0.319991 198.432L0.319991 200.136ZM11.432 228.048C9.77599 228.048 8.09599 226.368 8.09599 223.2L8.09599 223.08C8.09599 219.936 9.87199 218.736 11.432 218.736L11.528 218.736C13.208 218.736 14.84 219.672 14.84 223.032L14.84 223.152C14.84 226.32 13.208 228.048 11.528 228.048L11.432 228.048ZM22.856 228.048L16.184 228.048C16.712 227.448 18.224 225.6 18.224 221.568L18.224 221.184C18.224 215.4 15.248 213.264 11.792 213.264L11.336 213.264C7.71199 213.264 4.68799 215.664 4.68799 221.4L4.68799 221.712C4.68799 225.864 6.46399 227.736 6.96799 228.096L4.99999 228.096L4.99999 233.424L22.856 233.424L22.856 228.048ZM4.63999 248.452C4.63999 256.42 8.33599 257.692 11.312 257.692L11.744 257.692C14.672 257.692 18.272 256.324 18.272 248.452L18.272 246.748C18.272 239.26 14.72 237.484 11.744 237.484L11.312 237.484C8.33599 237.484 4.63999 239.284 4.63999 246.772L4.63999 248.452ZM8.11999 247.612C8.11999 243.964 9.94399 242.956 11.456 242.956L11.576 242.956C13.208 242.956 14.84 243.964 14.84 247.612L14.84 247.636C14.84 251.236 13.184 252.268 11.576 252.268L11.456 252.268C9.94399 252.268 8.11999 251.26 8.11999 247.612ZM4.99999 267.094L11.096 267.094C13.112 267.094 14.6 268.486 14.6 270.79C14.6 272.902 13.28 273.742 11.384 273.742L4.99999 273.742L4.99999 279.142L11.096 279.142C13.112 279.142 14.6 280.534 14.6 282.838C14.6 284.95 13.28 285.766 11.384 285.766L4.99999 285.766L4.99999 291.166L13.16 291.166C15.584 291.166 18.2 289.51 18.2 285.214L18.2 285.022C18.2 281.566 16.592 279.478 15.632 278.518C17.072 277.726 18.2 276.118 18.2 273.358L18.2 273.19C18.2 269.446 16.28 267.646 15.68 267.046L17.912 267.046L17.912 261.742L4.99999 261.742L4.99999 267.094Z" fill="#FF4656"/>
</svg>
