<svg width="219" height="19" viewBox="0 0 219 19" fill="none" xmlns="http://www.w3.org/2000/svg">
<path d="M5.96 4.2H14.432C16.064 4.2 16.688 4.992 16.688 5.928V5.952C16.688 6.936 16.04 7.704 14.432 7.704H5.96V4.2ZM5.96 11.664H13.256C16.016 11.664 16.976 12.624 16.976 14.808V16.872C16.976 17.52 17.072 17.784 17.24 18H22.928V17.88C22.76 17.592 22.592 17.136 22.592 15.696V13.08C22.592 10.776 21.032 9.504 19.208 8.976C20.384 8.592 22.52 7.632 22.52 5.064V4.776C22.52 2.208 20.72 0.144 14.768 0.144H0.368V18H5.96V11.664ZM33.6219 7.728C36.3339 7.728 37.5819 8.544 37.9419 9.912H29.3019C29.7099 8.544 30.9099 7.728 33.5979 7.728H33.6219ZM43.2699 13.44H37.9899C37.9179 13.752 37.3419 15.096 33.7899 15.096H33.7659C30.8139 15.096 29.5179 14.088 29.2059 12.576H43.3419V11.688C43.3419 8.544 41.9499 4.728 34.3659 4.728H32.9019C25.9179 4.728 23.9499 7.92 23.9499 11.232V11.76C23.9499 15.144 26.1579 18.36 33.0459 18.36H34.4139C42.1179 18.36 43.2699 15.216 43.2699 13.464V13.44ZM53.5319 18.36C60.6599 18.36 62.0519 16.296 62.0519 13.92V13.776C62.0519 11.184 60.8039 9.84 54.8519 9.72L52.5479 9.672C50.3159 9.6 49.8359 9.216 49.8359 8.64V8.592C49.8359 7.944 50.3399 7.632 52.9079 7.632H52.9319C55.8119 7.632 56.0519 8.472 56.1239 8.952H61.5719V8.784C61.5719 6.768 60.0119 4.728 53.4839 4.728H52.5239C45.4199 4.728 44.3639 6.768 44.3639 8.76V8.904C44.3639 10.8 45.7079 12.816 51.3239 12.936L53.6279 12.984C56.1479 13.056 56.4599 13.44 56.4599 14.112V14.16C56.4599 14.784 56.0999 15.384 53.1239 15.384H53.0759C49.9559 15.384 49.7639 14.112 49.7639 13.632H44.2439V13.776C44.2439 15.432 45.0119 18.36 52.5479 18.36H53.5319ZM81.5231 5.088H76.1711V11.184C76.1711 13.296 74.6591 14.688 72.3311 14.688C70.0511 14.688 69.0191 13.392 69.0191 11.472V5.088H63.6191V13.128C63.6191 15.552 65.3231 18.288 69.7631 18.288H69.9551C73.6991 18.288 75.5711 16.368 76.2191 15.768V18H81.5231V5.088ZM89.1284 11.328C89.1284 9.672 90.1124 8.208 91.9124 8.208H91.9364C93.9524 8.208 94.6724 9.648 94.6724 11.304H99.8324V10.56C99.8324 7.224 98.3204 4.8 94.5764 4.8H94.3124C91.0964 4.8 89.5364 6.648 89.0804 7.368V5.088H83.7764V18H89.1284V11.328ZM106.777 11.328C106.777 9.672 107.761 8.208 109.561 8.208H109.585C111.601 8.208 112.321 9.648 112.321 11.304H117.481V10.56C117.481 7.224 115.969 4.8 112.225 4.8H111.961C108.745 4.8 107.185 6.648 106.729 7.368V5.088H101.425V18H106.777V11.328ZM128.145 7.728C130.857 7.728 132.105 8.544 132.465 9.912H123.825C124.233 8.544 125.433 7.728 128.121 7.728H128.145ZM137.793 13.44H132.513C132.441 13.752 131.865 15.096 128.313 15.096H128.289C125.337 15.096 124.041 14.088 123.729 12.576H137.865V11.688C137.865 8.544 136.473 4.728 128.889 4.728H127.425C120.441 4.728 118.473 7.92 118.473 11.232V11.76C118.473 15.144 120.681 18.36 127.569 18.36H128.937C136.641 18.36 137.793 15.216 137.793 13.464V13.44ZM149.207 18.36C157.463 18.36 158.303 14.4 158.303 12.6V12.552H152.807C152.687 13.056 152.159 14.928 148.535 14.928H148.463C145.367 14.928 144.359 13.2 144.359 11.472V11.304C144.359 9.672 145.343 8.112 148.463 8.112H148.535C152.207 8.112 152.687 9.936 152.807 10.44H158.303V10.368C158.303 8.64 157.295 4.728 149.231 4.728H147.863C140.495 4.728 138.887 8.352 138.887 11.232V11.712C138.887 14.592 140.519 18.36 147.887 18.36H149.207ZM169.43 18V14.448H167.966C167.03 14.448 166.886 14.016 166.886 13.32V8.64H169.43V5.088H166.886V1.32H161.606V5.088H159.086V8.64H161.606V14.328C161.606 16.56 162.47 18 164.798 18H169.43ZM176.597 0.144H171.245V3.84H176.597V0.144ZM176.597 5.088H171.245V18H176.597V5.088ZM189.23 18.36C197.198 18.36 198.47 14.664 198.47 11.688V11.256C198.47 8.328 197.102 4.728 189.23 4.728H187.526C180.038 4.728 178.262 8.28 178.262 11.256V11.688C178.262 14.664 180.062 18.36 187.55 18.36H189.23ZM188.39 14.88C184.742 14.88 183.734 13.056 183.734 11.544V11.424C183.734 9.792 184.742 8.16 188.39 8.16H188.414C192.014 8.16 193.046 9.816 193.046 11.424V11.544C193.046 13.056 192.038 14.88 188.39 14.88ZM200.12 18H205.472V11.904C205.472 9.792 207.032 8.4 209.432 8.4C211.808 8.4 212.888 9.624 212.888 11.616V18H218.288V9.84C218.288 7.344 216.512 4.8 212 4.8H211.832C207.992 4.8 206.072 6.648 205.424 7.296V5.088H200.12V18Z" fill="black"/>
</svg>
