<svg width="311" height="53" viewBox="0 0 311 53" fill="none" xmlns="http://www.w3.org/2000/svg">
<path d="M4 12H5.184V1.824H9.12V0.799999H0.064V1.824H4V12ZM14.8468 3.52C13.5188 3.52 12.2708 3.936 11.4228 4.656L11.9348 5.504C12.6228 4.896 13.6468 4.512 14.7348 4.512C16.3028 4.512 17.1188 5.296 17.1188 6.736V7.248H14.4468C12.0308 7.248 11.1988 8.336 11.1988 9.632C11.1988 11.088 12.3668 12.08 14.2708 12.08C15.6628 12.08 16.6548 11.552 17.1668 10.688V12H18.2548V6.784C18.2548 4.608 17.0228 3.52 14.8468 3.52ZM14.4468 11.184C13.1028 11.184 12.3188 10.576 12.3188 9.6C12.3188 8.736 12.8468 8.096 14.4788 8.096H17.1188V9.472C16.6708 10.576 15.7268 11.184 14.4468 11.184ZM24.0283 5.232V3.584H22.9403V12H24.0763V7.712C24.0763 5.728 25.1483 4.608 26.9083 4.608C26.9883 4.608 27.0843 4.624 27.1803 4.624V3.52C25.6283 3.52 24.5563 4.112 24.0283 5.232ZM37.463 3.584V5.2C36.759 4.096 35.543 3.52 34.135 3.52C31.735 3.52 29.911 5.168 29.911 7.584C29.911 10 31.735 11.68 34.135 11.68C35.511 11.68 36.711 11.12 37.415 10.048V11.12C37.415 13.2 36.439 14.176 34.311 14.176C33.015 14.176 31.799 13.744 30.999 13.024L30.423 13.888C31.303 14.72 32.807 15.184 34.343 15.184C37.127 15.184 38.551 13.872 38.551 10.976V3.584H37.463ZM34.247 10.672C32.391 10.672 31.063 9.408 31.063 7.584C31.063 5.76 32.391 4.512 34.247 4.512C36.103 4.512 37.447 5.76 37.447 7.584C37.447 9.408 36.103 10.672 34.247 10.672ZM50.6718 7.792C50.6718 5.264 48.9598 3.52 46.5918 3.52C44.2238 3.52 42.4798 5.296 42.4798 7.792C42.4798 10.288 44.2718 12.08 46.8958 12.08C48.2238 12.08 49.3918 11.6 50.1438 10.704L49.5038 9.968C48.8638 10.704 47.9518 11.072 46.9278 11.072C45.0878 11.072 43.7438 9.904 43.6158 8.144H50.6558C50.6558 8.016 50.6718 7.888 50.6718 7.792ZM46.5918 4.496C48.2398 4.496 49.4398 5.648 49.5838 7.296H43.6158C43.7598 5.648 44.9598 4.496 46.5918 4.496ZM58.616 10.672C58.296 10.96 57.832 11.104 57.368 11.104C56.424 11.104 55.912 10.56 55.912 9.568V4.544H58.472V3.584H55.912V1.744H54.776V3.584H53.272V4.544H54.776V9.632C54.776 11.184 55.656 12.08 57.24 12.08C57.896 12.08 58.568 11.888 59.016 11.488L58.616 10.672ZM71.4155 3.52C70.0875 3.52 68.8395 3.936 67.9915 4.656L68.5035 5.504C69.1915 4.896 70.2155 4.512 71.3035 4.512C72.8715 4.512 73.6875 5.296 73.6875 6.736V7.248H71.0155C68.5995 7.248 67.7675 8.336 67.7675 9.632C67.7675 11.088 68.9355 12.08 70.8395 12.08C72.2315 12.08 73.2235 11.552 73.7355 10.688V12H74.8235V6.784C74.8235 4.608 73.5915 3.52 71.4155 3.52ZM71.0155 11.184C69.6715 11.184 68.8875 10.576 68.8875 9.6C68.8875 8.736 69.4155 8.096 71.0475 8.096H73.6875V9.472C73.2395 10.576 72.2955 11.184 71.0155 11.184ZM88.0805 1.008C88.5605 1.008 89.0085 1.152 89.3285 1.424L89.7125 0.575999C89.2965 0.223999 88.6565 0.0479994 88.0325 0.0479994C86.3845 0.0479994 85.4885 1.04 85.4885 2.544V3.584H83.9845V4.544H85.4885V12H86.6245V4.544H89.1845V3.584H86.5925V2.592C86.5925 1.552 87.1045 1.008 88.0805 1.008ZM94.6876 5.232V3.584H93.5996V12H94.7356V7.712C94.7356 5.728 95.8076 4.608 97.5676 4.608C97.6476 4.608 97.7436 4.624 97.8396 4.624V3.52C96.2876 3.52 95.2156 4.112 94.6876 5.232ZM102.072 1.744C102.552 1.744 102.904 1.376 102.904 0.912C102.904 0.48 102.536 0.127999 102.072 0.127999C101.608 0.127999 101.24 0.495999 101.24 0.927999C101.24 1.376 101.608 1.744 102.072 1.744ZM101.496 12H102.632V3.584H101.496V12ZM114.737 7.792C114.737 5.264 113.025 3.52 110.657 3.52C108.289 3.52 106.545 5.296 106.545 7.792C106.545 10.288 108.337 12.08 110.961 12.08C112.289 12.08 113.457 11.6 114.209 10.704L113.569 9.968C112.929 10.704 112.017 11.072 110.993 11.072C109.153 11.072 107.809 9.904 107.681 8.144H114.721C114.721 8.016 114.737 7.888 114.737 7.792ZM110.657 4.496C112.305 4.496 113.505 5.648 113.649 7.296H107.681C107.825 5.648 109.025 4.496 110.657 4.496ZM122.938 3.52C121.482 3.52 120.346 4.112 119.738 5.136V3.584H118.65V12H119.786V7.584C119.786 5.664 120.922 4.544 122.73 4.544C124.33 4.544 125.258 5.456 125.258 7.232V12H126.394V7.12C126.394 4.704 124.986 3.52 122.938 3.52ZM137.653 0.127999V5.184C136.949 4.096 135.797 3.52 134.453 3.52C132.053 3.52 130.261 5.248 130.261 7.792C130.261 10.336 132.053 12.08 134.453 12.08C135.845 12.08 137.013 11.472 137.701 10.336V12H138.789V0.127999H137.653ZM134.549 11.072C132.757 11.072 131.413 9.76 131.413 7.792C131.413 5.824 132.757 4.512 134.549 4.512C136.325 4.512 137.669 5.824 137.669 7.792C137.669 9.76 136.325 11.072 134.549 11.072ZM143.553 12H144.689V0.127999H143.553V12ZM155.402 3.584L152.234 10.736L149.066 3.584H147.882L151.642 11.984L151.274 12.8C150.794 13.856 150.282 14.208 149.53 14.208C148.922 14.208 148.41 13.984 147.994 13.568L147.466 14.416C147.978 14.928 148.73 15.184 149.514 15.184C150.714 15.184 151.61 14.656 152.314 13.008L156.522 3.584H155.402ZM168.997 12.08C170.421 12.08 171.621 11.504 172.293 10.416L171.445 9.84C170.869 10.688 169.973 11.072 168.997 11.072C167.157 11.072 165.813 9.776 165.813 7.792C165.813 5.824 167.157 4.512 168.997 4.512C169.973 4.512 170.869 4.912 171.445 5.76L172.293 5.184C171.621 4.08 170.421 3.52 168.997 3.52C166.485 3.52 164.661 5.28 164.661 7.792C164.661 10.304 166.485 12.08 168.997 12.08ZM179.424 12.08C181.888 12.08 183.696 10.288 183.696 7.792C183.696 5.296 181.888 3.52 179.424 3.52C176.96 3.52 175.136 5.296 175.136 7.792C175.136 10.288 176.96 12.08 179.424 12.08ZM179.424 11.072C177.632 11.072 176.288 9.76 176.288 7.792C176.288 5.824 177.632 4.512 179.424 4.512C181.216 4.512 182.544 5.824 182.544 7.792C182.544 9.76 181.216 11.072 179.424 11.072ZM188.703 5.232V3.584H187.615V12H188.751V7.712C188.751 5.728 189.823 4.608 191.583 4.608C191.663 4.608 191.759 4.624 191.855 4.624V3.52C190.303 3.52 189.231 4.112 188.703 5.232ZM199.848 3.52C198.456 3.52 197.288 4.128 196.6 5.248V3.584H195.512V15.104H196.648V10.416C197.352 11.504 198.504 12.08 199.848 12.08C202.248 12.08 204.04 10.352 204.04 7.792C204.04 5.248 202.248 3.52 199.848 3.52ZM199.768 11.072C197.976 11.072 196.632 9.76 196.632 7.792C196.632 5.84 197.976 4.512 199.768 4.512C201.544 4.512 202.904 5.84 202.904 7.792C202.904 9.76 201.544 11.072 199.768 11.072ZM210.212 12.08C212.404 12.08 213.684 11.136 213.684 9.68C213.684 6.448 208.228 8.16 208.228 5.888C208.228 5.088 208.9 4.496 210.42 4.496C211.284 4.496 212.164 4.704 212.9 5.216L213.396 4.304C212.692 3.824 211.508 3.52 210.42 3.52C208.276 3.52 207.092 4.544 207.092 5.92C207.092 9.248 212.548 7.52 212.548 9.712C212.548 10.544 211.892 11.088 210.292 11.088C209.108 11.088 207.972 10.672 207.3 10.144L206.788 11.04C207.476 11.632 208.82 12.08 210.212 12.08ZM224.728 7.792C224.728 5.264 223.016 3.52 220.648 3.52C218.28 3.52 216.536 5.296 216.536 7.792C216.536 10.288 218.328 12.08 220.952 12.08C222.28 12.08 223.448 11.6 224.2 10.704L223.56 9.968C222.92 10.704 222.008 11.072 220.984 11.072C219.144 11.072 217.8 9.904 217.672 8.144H224.712C224.712 8.016 224.728 7.888 224.728 7.792ZM220.648 4.496C222.296 4.496 223.496 5.648 223.64 7.296H217.672C217.816 5.648 219.016 4.496 220.648 4.496ZM228.752 12.08C229.216 12.08 229.616 11.696 229.616 11.2C229.616 10.704 229.216 10.336 228.752 10.336C228.288 10.336 227.904 10.704 227.904 11.2C227.904 11.696 228.288 12.08 228.752 12.08ZM248.026 12H249.274L244.154 0.799999H242.986L237.866 12H239.098L240.442 9.008H246.682L248.026 12ZM240.874 8.048L243.562 2.032L246.25 8.048H240.874ZM255.271 1.008C255.751 1.008 256.199 1.152 256.519 1.424L256.903 0.575999C256.487 0.223999 255.847 0.0479994 255.223 0.0479994C253.575 0.0479994 252.679 1.04 252.679 2.544V3.584H251.175V4.544H252.679V12H253.815V4.544H256.375V3.584H253.783V2.592C253.783 1.552 254.295 1.008 255.271 1.008ZM263.541 10.672C263.221 10.96 262.757 11.104 262.293 11.104C261.349 11.104 260.837 10.56 260.837 9.568V4.544H263.397V3.584H260.837V1.744H259.701V3.584H258.197V4.544H259.701V9.632C259.701 11.184 260.581 12.08 262.165 12.08C262.821 12.08 263.493 11.888 263.941 11.488L263.541 10.672ZM274.656 7.792C274.656 5.264 272.944 3.52 270.576 3.52C268.208 3.52 266.464 5.296 266.464 7.792C266.464 10.288 268.256 12.08 270.88 12.08C272.208 12.08 273.376 11.6 274.128 10.704L273.488 9.968C272.848 10.704 271.936 11.072 270.912 11.072C269.072 11.072 267.728 9.904 267.6 8.144H274.64C274.64 8.016 274.656 7.888 274.656 7.792ZM270.576 4.496C272.224 4.496 273.424 5.648 273.568 7.296H267.6C267.744 5.648 268.944 4.496 270.576 4.496ZM279.656 5.232V3.584H278.568V12H279.704V7.712C279.704 5.728 280.776 4.608 282.536 4.608C282.616 4.608 282.712 4.624 282.808 4.624V3.52C281.256 3.52 280.184 4.112 279.656 5.232ZM295.322 3.52C293.994 3.52 292.746 3.936 291.898 4.656L292.41 5.504C293.098 4.896 294.122 4.512 295.21 4.512C296.778 4.512 297.594 5.296 297.594 6.736V7.248H294.922C292.506 7.248 291.674 8.336 291.674 9.632C291.674 11.088 292.842 12.08 294.746 12.08C296.138 12.08 297.13 11.552 297.642 10.688V12H298.73V6.784C298.73 4.608 297.498 3.52 295.322 3.52ZM294.922 11.184C293.578 11.184 292.794 10.576 292.794 9.6C292.794 8.736 293.322 8.096 294.954 8.096H297.594V9.472C297.146 10.576 296.202 11.184 294.922 11.184ZM3.84 32.08C6.032 32.08 7.312 31.136 7.312 29.68C7.312 26.448 1.856 28.16 1.856 25.888C1.856 25.088 2.528 24.496 4.048 24.496C4.912 24.496 5.792 24.704 6.528 25.216L7.024 24.304C6.32 23.824 5.136 23.52 4.048 23.52C1.904 23.52 0.72 24.544 0.72 25.92C0.72 29.248 6.176 27.52 6.176 29.712C6.176 30.544 5.52 31.088 3.92 31.088C2.736 31.088 1.6 30.672 0.928 30.144L0.416 31.04C1.104 31.632 2.448 32.08 3.84 32.08ZM15.3001 23.52C13.8761 23.52 12.7721 24.08 12.1481 25.056V20.128H11.0121V32H12.1481V27.584C12.1481 25.664 13.2841 24.544 15.0921 24.544C16.6921 24.544 17.6201 25.456 17.6201 27.232V32H18.7561V27.12C18.7561 24.704 17.3481 23.52 15.3001 23.52ZM26.9115 32.08C29.3755 32.08 31.1835 30.288 31.1835 27.792C31.1835 25.296 29.3755 23.52 26.9115 23.52C24.4475 23.52 22.6235 25.296 22.6235 27.792C22.6235 30.288 24.4475 32.08 26.9115 32.08ZM26.9115 31.072C25.1195 31.072 23.7755 29.76 23.7755 27.792C23.7755 25.824 25.1195 24.512 26.9115 24.512C28.7035 24.512 30.0315 25.824 30.0315 27.792C30.0315 29.76 28.7035 31.072 26.9115 31.072ZM36.1907 25.232V23.584H35.1027V32H36.2387V27.712C36.2387 25.728 37.3107 24.608 39.0707 24.608C39.1507 24.608 39.2467 24.624 39.3427 24.624V23.52C37.7907 23.52 36.7187 24.112 36.1907 25.232ZM47.391 30.672C47.071 30.96 46.607 31.104 46.143 31.104C45.199 31.104 44.687 30.56 44.687 29.568V24.544H47.247V23.584H44.687V21.744H43.551V23.584H42.047V24.544H43.551V29.632C43.551 31.184 44.431 32.08 46.015 32.08C46.671 32.08 47.343 31.888 47.791 31.488L47.391 30.672ZM63.7905 20.128V25.184C63.0865 24.096 61.9345 23.52 60.5905 23.52C58.1905 23.52 56.3985 25.248 56.3985 27.792C56.3985 30.336 58.1905 32.08 60.5905 32.08C61.9825 32.08 63.1505 31.472 63.8385 30.336V32H64.9265V20.128H63.7905ZM60.6865 31.072C58.8945 31.072 57.5505 29.76 57.5505 27.792C57.5505 25.824 58.8945 24.512 60.6865 24.512C62.4625 24.512 63.8065 25.824 63.8065 27.792C63.8065 29.76 62.4625 31.072 60.6865 31.072ZM77.0342 27.792C77.0342 25.264 75.3222 23.52 72.9542 23.52C70.5862 23.52 68.8422 25.296 68.8422 27.792C68.8422 30.288 70.6342 32.08 73.2582 32.08C74.5862 32.08 75.7542 31.6 76.5062 30.704L75.8662 29.968C75.2262 30.704 74.3142 31.072 73.2902 31.072C71.4502 31.072 70.1062 29.904 69.9782 28.144H77.0182C77.0182 28.016 77.0342 27.888 77.0342 27.792ZM72.9542 24.496C74.6022 24.496 75.8022 25.648 75.9462 27.296H69.9782C70.1222 25.648 71.3222 24.496 72.9542 24.496ZM80.9465 32H82.0825V20.128H80.9465V32ZM89.7874 23.52C88.4594 23.52 87.2114 23.936 86.3634 24.656L86.8754 25.504C87.5634 24.896 88.5874 24.512 89.6754 24.512C91.2434 24.512 92.0594 25.296 92.0594 26.736V27.248H89.3874C86.9714 27.248 86.1394 28.336 86.1394 29.632C86.1394 31.088 87.3074 32.08 89.2114 32.08C90.6034 32.08 91.5954 31.552 92.1074 30.688V32H93.1954V26.784C93.1954 24.608 91.9634 23.52 89.7874 23.52ZM89.3874 31.184C88.0434 31.184 87.2594 30.576 87.2594 29.6C87.2594 28.736 87.7874 28.096 89.4194 28.096H92.0594V29.472C91.6114 30.576 90.6674 31.184 89.3874 31.184ZM103.677 23.584L100.509 30.736L97.3406 23.584H96.1566L99.9166 31.984L99.5486 32.8C99.0686 33.856 98.5566 34.208 97.8046 34.208C97.1966 34.208 96.6846 33.984 96.2686 33.568L95.7406 34.416C96.2526 34.928 97.0046 35.184 97.7886 35.184C98.9886 35.184 99.8846 34.656 100.589 33.008L104.797 23.584H103.677ZM107.578 30.336C107.098 30.336 106.73 30.704 106.73 31.2C106.73 31.616 106.97 31.92 107.306 32.016L106.762 34.336H107.53L108.202 32.128C108.362 31.68 108.426 31.472 108.426 31.2C108.426 30.72 108.074 30.336 107.578 30.336ZM119.316 25.232V23.584H118.228V32H119.364V27.712C119.364 25.728 120.436 24.608 122.196 24.608C122.276 24.608 122.372 24.624 122.468 24.624V23.52C120.916 23.52 119.844 24.112 119.316 25.232ZM133.391 27.792C133.391 25.264 131.679 23.52 129.311 23.52C126.943 23.52 125.199 25.296 125.199 27.792C125.199 30.288 126.991 32.08 129.615 32.08C130.943 32.08 132.111 31.6 132.863 30.704L132.223 29.968C131.583 30.704 130.671 31.072 129.647 31.072C127.807 31.072 126.463 29.904 126.335 28.144H133.375C133.375 28.016 133.391 27.888 133.391 27.792ZM129.311 24.496C130.959 24.496 132.159 25.648 132.303 27.296H126.335C126.479 25.648 127.679 24.496 129.311 24.496ZM143.099 23.584L139.915 30.752L136.763 23.584H135.579L139.307 32H140.475L144.219 23.584H143.099ZM147.994 21.744C148.474 21.744 148.826 21.376 148.826 20.912C148.826 20.48 148.458 20.128 147.994 20.128C147.53 20.128 147.162 20.496 147.162 20.928C147.162 21.376 147.53 21.744 147.994 21.744ZM147.418 32H148.554V23.584H147.418V32ZM159.267 23.584L156.083 30.752L152.931 23.584H151.747L155.475 32H156.643L160.387 23.584H159.267ZM170.697 27.792C170.697 25.264 168.985 23.52 166.617 23.52C164.249 23.52 162.505 25.296 162.505 27.792C162.505 30.288 164.297 32.08 166.921 32.08C168.249 32.08 169.417 31.6 170.169 30.704L169.529 29.968C168.889 30.704 167.977 31.072 166.953 31.072C165.113 31.072 163.769 29.904 163.641 28.144H170.681C170.681 28.016 170.697 27.888 170.697 27.792ZM166.617 24.496C168.265 24.496 169.465 25.648 169.609 27.296H163.641C163.785 25.648 164.985 24.496 166.617 24.496ZM184.429 30.672C184.109 30.96 183.645 31.104 183.181 31.104C182.237 31.104 181.725 30.56 181.725 29.568V24.544H184.285V23.584H181.725V21.744H180.589V23.584H179.085V24.544H180.589V29.632C180.589 31.184 181.469 32.08 183.053 32.08C183.709 32.08 184.381 31.888 184.829 31.488L184.429 30.672ZM192.785 23.52C191.361 23.52 190.257 24.08 189.633 25.056V20.128H188.497V32H189.633V27.584C189.633 25.664 190.769 24.544 192.577 24.544C194.177 24.544 195.105 25.456 195.105 27.232V32H196.241V27.12C196.241 24.704 194.833 23.52 192.785 23.52ZM208.3 27.792C208.3 25.264 206.588 23.52 204.22 23.52C201.852 23.52 200.108 25.296 200.108 27.792C200.108 30.288 201.9 32.08 204.524 32.08C205.852 32.08 207.02 31.6 207.772 30.704L207.132 29.968C206.492 30.704 205.58 31.072 204.556 31.072C202.716 31.072 201.372 29.904 201.244 28.144H208.284C208.284 28.016 208.3 27.888 208.3 27.792ZM204.22 24.496C205.868 24.496 207.068 25.648 207.212 27.296H201.244C201.388 25.648 202.588 24.496 204.22 24.496ZM222.708 23.52C221.188 23.52 219.988 24.208 219.38 25.296C218.868 24.112 217.78 23.52 216.388 23.52C214.98 23.52 213.892 24.112 213.3 25.12V23.584H212.212V32H213.348V27.584C213.348 25.664 214.452 24.544 216.164 24.544C217.7 24.544 218.596 25.456 218.596 27.232V32H219.732V27.584C219.732 25.664 220.82 24.544 222.548 24.544C224.068 24.544 224.964 25.456 224.964 27.232V32H226.1V27.12C226.1 24.704 224.756 23.52 222.708 23.52ZM247.88 23.584L245.208 30.736L242.52 23.584H241.544L238.84 30.736L236.2 23.584H235.112L238.28 32H239.352L242.008 25.104L244.664 32H245.736L248.92 23.584H247.88ZM252.807 21.744C253.287 21.744 253.639 21.376 253.639 20.912C253.639 20.48 253.271 20.128 252.807 20.128C252.343 20.128 251.975 20.496 251.975 20.928C251.975 21.376 252.343 21.744 252.807 21.744ZM252.231 32H253.367V23.584H252.231V32ZM262.16 30.672C261.84 30.96 261.376 31.104 260.912 31.104C259.968 31.104 259.456 30.56 259.456 29.568V24.544H262.016V23.584H259.456V21.744H258.32V23.584H256.816V24.544H258.32V29.632C258.32 31.184 259.2 32.08 260.784 32.08C261.44 32.08 262.112 31.888 262.56 31.488L262.16 30.672ZM270.516 23.52C269.092 23.52 267.988 24.08 267.364 25.056V20.128H266.228V32H267.364V27.584C267.364 25.664 268.5 24.544 270.308 24.544C271.908 24.544 272.836 25.456 272.836 27.232V32H273.972V27.12C273.972 24.704 272.564 23.52 270.516 23.52ZM287.227 21.008C287.707 21.008 288.155 21.152 288.475 21.424L288.859 20.576C288.443 20.224 287.803 20.048 287.179 20.048C285.531 20.048 284.635 21.04 284.635 22.544V23.584H283.131V24.544H284.635V32H285.771V24.544H288.331V23.584H285.739V22.592C285.739 21.552 286.251 21.008 287.227 21.008ZM297.913 23.584V28C297.913 29.92 296.809 31.056 295.049 31.056C293.449 31.056 292.521 30.144 292.521 28.352V23.584H291.385V28.464C291.385 30.88 292.793 32.08 294.937 32.08C296.281 32.08 297.369 31.488 297.961 30.464V32H299.049V23.584H297.913ZM303.831 32H304.967V20.128H303.831V32ZM309.728 32H310.864V20.128H309.728V32ZM5.872 43.52C4.448 43.52 3.344 44.08 2.72 45.056V40.128H1.584V52H2.72V47.584C2.72 45.664 3.856 44.544 5.664 44.544C7.264 44.544 8.192 45.456 8.192 47.232V52H9.328V47.12C9.328 44.704 7.92 43.52 5.872 43.52ZM21.3874 47.792C21.3874 45.264 19.6754 43.52 17.3074 43.52C14.9394 43.52 13.1954 45.296 13.1954 47.792C13.1954 50.288 14.9874 52.08 17.6114 52.08C18.9394 52.08 20.1074 51.6 20.8594 50.704L20.2194 49.968C19.5794 50.704 18.6674 51.072 17.6434 51.072C15.8034 51.072 14.4594 49.904 14.3314 48.144H21.3714C21.3714 48.016 21.3874 47.888 21.3874 47.792ZM17.3074 44.496C18.9554 44.496 20.1554 45.648 20.2994 47.296H14.3314C14.4754 45.648 15.6754 44.496 17.3074 44.496ZM28.0093 43.52C26.6813 43.52 25.4333 43.936 24.5853 44.656L25.0973 45.504C25.7853 44.896 26.8093 44.512 27.8973 44.512C29.4653 44.512 30.2813 45.296 30.2813 46.736V47.248H27.6093C25.1933 47.248 24.3613 48.336 24.3613 49.632C24.3613 51.088 25.5293 52.08 27.4333 52.08C28.8253 52.08 29.8173 51.552 30.3293 50.688V52H31.4173V46.784C31.4173 44.608 30.1853 43.52 28.0093 43.52ZM27.6093 51.184C26.2653 51.184 25.4813 50.576 25.4813 49.6C25.4813 48.736 26.0093 48.096 27.6413 48.096H30.2813V49.472C29.8333 50.576 28.8893 51.184 27.6093 51.184ZM36.1027 52H37.2387V40.128H36.1027V52ZM46.0629 50.672C45.7429 50.96 45.2789 51.104 44.8149 51.104C43.8709 51.104 43.3589 50.56 43.3589 49.568V44.544H45.9189V43.584H43.3589V41.744H42.2229V43.584H40.7189V44.544H42.2229V49.632C42.2229 51.184 43.1029 52.08 44.6869 52.08C45.3429 52.08 46.0149 51.888 46.4629 51.488L46.0629 50.672ZM54.4189 43.52C52.9949 43.52 51.8909 44.08 51.2669 45.056V40.128H50.1309V52H51.2669V47.584C51.2669 45.664 52.4029 44.544 54.2109 44.544C55.8109 44.544 56.7389 45.456 56.7389 47.232V52H57.8749V47.12C57.8749 44.704 56.4669 43.52 54.4189 43.52ZM62.671 52.08C63.135 52.08 63.535 51.696 63.535 51.2C63.535 50.704 63.135 50.336 62.671 50.336C62.207 50.336 61.823 50.704 61.823 51.2C61.823 51.696 62.207 52.08 62.671 52.08Z" fill="#1F2326"/>
</svg>
