<svg width="277" height="31" viewBox="0 0 277 31" fill="none" xmlns="http://www.w3.org/2000/svg">
<path d="M20.92 30.44C36.16 30.44 39.2 20.28 39.2 14.68V0.239999H29.88V14.12C29.88 17.96 28.12 22.72 20.12 22.72C12 22.72 10.28 17.96 10.28 14.12V0.239999H0.92V14.68C0.92 20.28 3.52 30.44 19.48 30.44H20.92ZM43.3894 0.239999V30H73.3894V22.6H52.7094V0.239999H43.3894ZM80.3809 30H89.7809V7.28H102.621V0.239999H67.5809V7.28H80.3809V30ZM115.327 0.239999H106.007V30H115.327V0.239999ZM119.874 30H128.834V9.4L140.554 30H145.554L157.274 9.4V30H166.474V0.239999H153.714L143.394 18.76L133.114 0.239999H119.874V30ZM194.886 17.84H183.606L189.126 6.68L194.886 17.84ZM201.126 30H211.166L195.246 0.239999H183.166L168.126 30H177.606L180.286 24.56H198.326L201.126 30ZM218.74 30H228.14V7.28H240.98V0.239999H205.94V7.28H218.74V30ZM244.366 0.239999V30H276.126V23.08H253.566V18.2H275.206V11.4H253.566V7H275.726V0.239999H244.366Z" fill="#C4C4C4"/>
</svg>
