<svg width="19" height="120" viewBox="0 0 19 120" fill="none" xmlns="http://www.w3.org/2000/svg">
<path d="M14.8 5.96L14.8 14.432C14.8 16.064 14.008 16.688 13.072 16.688L13.048 16.688C12.064 16.688 11.296 16.04 11.296 14.432L11.296 5.96L14.8 5.96ZM7.336 5.96L7.336 13.256C7.336 16.016 6.376 16.976 4.192 16.976L2.128 16.976C1.48 16.976 1.216 17.072 0.999999 17.24L0.999999 22.928L1.12 22.928C1.408 22.76 1.864 22.592 3.304 22.592L5.92 22.592C8.224 22.592 9.496 21.032 10.024 19.208C10.408 20.384 11.368 22.52 13.936 22.52L14.224 22.52C16.792 22.52 18.856 20.72 18.856 14.768L18.856 0.368L1 0.367999L1 5.96L7.336 5.96ZM13.912 44.6887L13.912 39.3367L7.816 39.3367C5.704 39.3367 4.312 37.8247 4.312 35.4967C4.312 33.2167 5.608 32.1847 7.528 32.1847L13.912 32.1847L13.912 26.7847L5.872 26.7847C3.448 26.7847 0.711999 28.4887 0.711999 32.9287L0.711999 33.1207C0.711998 36.8647 2.632 38.7367 3.232 39.3847L0.999998 39.3847L0.999998 44.6887L13.912 44.6887ZM0.639997 57.9101C0.639997 65.0381 2.704 66.4301 5.08 66.4301L5.224 66.4301C7.816 66.4301 9.16 65.1821 9.28 59.2301L9.328 56.9261C9.4 54.6941 9.784 54.2141 10.36 54.2141L10.408 54.2141C11.056 54.2141 11.368 54.7181 11.368 57.2861L11.368 57.3101C11.368 60.1901 10.528 60.4301 10.048 60.5021L10.048 65.9501L10.216 65.9501C12.232 65.9501 14.272 64.3901 14.272 57.8621L14.272 56.9021C14.272 49.7981 12.232 48.7421 10.24 48.7421L10.096 48.7421C8.2 48.7421 6.184 50.0861 6.064 55.7021L6.016 58.0061C5.944 60.5261 5.56 60.8381 4.888 60.8381L4.84 60.8381C4.216 60.8381 3.616 60.4781 3.616 57.5021L3.616 57.4541C3.616 54.3341 4.888 54.1421 5.368 54.1421L5.368 48.6221L5.224 48.6221C3.568 48.6221 0.639998 49.3901 0.639997 56.9261L0.639997 57.9101ZM0.639996 79.0132C0.639996 86.1412 2.704 87.5332 5.08 87.5332L5.224 87.5332C7.816 87.5332 9.16 86.2852 9.28 80.3332L9.328 78.0292C9.4 75.7972 9.784 75.3172 10.36 75.3172L10.408 75.3172C11.056 75.3172 11.368 75.8212 11.368 78.3892L11.368 78.4132C11.368 81.2932 10.528 81.5332 10.048 81.6052L10.048 87.0532L10.216 87.0532C12.232 87.0532 14.272 85.4932 14.272 78.9652L14.272 78.0052C14.272 70.9012 12.232 69.8452 10.24 69.8452L10.096 69.8452C8.2 69.8452 6.184 71.1892 6.064 76.8052L6.016 79.1092C5.944 81.6292 5.56 81.9412 4.888 81.9412L4.84 81.9412C4.216 81.9412 3.616 81.5812 3.616 78.6052L3.616 78.5572C3.616 75.4372 4.888 75.2452 5.368 75.2452L5.368 69.7252L5.224 69.7252C3.568 69.7252 0.639997 70.4932 0.639997 78.0292L0.639996 79.0132ZM18.856 96.9003L18.856 91.5483L15.16 91.5483L15.16 96.9003L18.856 96.9003ZM13.912 96.9003L13.912 91.5483L0.999996 91.5483L0.999996 96.9003L13.912 96.9003ZM6.736 112.965C5.2 112.965 3.664 111.117 3.664 108.261C3.664 106.437 4.432 105.909 5.128 105.909L5.152 105.909C5.896 105.909 6.136 106.485 6.352 107.853L7.144 112.965L6.736 112.965ZM2.776 113.109C1.552 113.301 0.999995 114.118 0.999995 115.149L0.999995 119.493L4.504 119.493L4.504 118.798C4.504 118.246 4.76799 118.126 5.15199 118.126L10.096 118.126C11.968 118.126 14.272 117.645 14.272 110.158L14.272 108.838C14.272 101.637 11.608 101.133 9.904 101.133L9.856 101.133L9.856 106.101C10.288 106.173 11.296 106.293 11.296 109.485L11.296 109.606C11.296 112.749 10.72 112.965 10.24 112.965C9.832 112.965 9.64 112.749 9.568 112.15L9.016 106.245C8.656 102.381 7.528 100.821 5.152 100.821L4.984 100.821C2.776 100.821 0.759995 102.477 0.759995 106.821L0.759995 107.133C0.759995 110.925 2.08 112.557 2.776 113.109Z" fill="#FF4656"/>
</svg>
