<svg width="176" height="32" viewBox="0 0 176 32" fill="none" xmlns="http://www.w3.org/2000/svg">
<path d="M0.28 31H26C35.64 31 38.32 27.12 38.32 22.44V21.88C38.32 16.64 33.96 14.92 31.92 14.4C33.36 13.96 36.64 12.48 36.64 8.6V8.04C36.64 4.52 34.28 1.24 25.76 1.24H0.28V31ZM24.16 7.52C26.76 7.52 27.4 8.64 27.4 9.88V9.96C27.4 11.16 26.76 12.36 24.16 12.36H9.6V7.52H24.16ZM24.96 18.68C28.04 18.68 28.64 20.16 28.64 21.44V21.6C28.64 22.8 28.04 24.52 24.96 24.52H9.6V18.68H24.96ZM65.1356 18.84H53.8556L59.3756 7.68L65.1356 18.84ZM71.3756 31H81.4156L65.4956 1.24H53.4156L38.3756 31H47.8556L50.5356 25.56H68.5756L71.3756 31ZM100.6 31.52C115.56 31.52 118.04 26.48 118.04 21.56V21C118.04 15.08 113.52 12.36 102.32 12.16L97.3197 12.08C91.2397 11.96 90.4397 10.8 90.4397 9.52C90.4397 8.24 90.9597 6.96 98.1597 6.96H98.7997C106.6 6.96 107.2 9.4 107.4 10.52H117.08V10.12C117.08 5.64 113.88 0.719999 99.7997 0.719999H97.0397C83.4797 0.719999 80.8397 5.36 80.8397 9.8V10.16C80.8397 14.8 84.2397 18.56 95.3597 18.88L100.48 19C107.36 19.2 108.28 20.28 108.28 22C108.28 23.6 107.4 25.16 99.5597 25.16H98.9997C91.3197 25.16 90.2797 22.24 90.1597 20.44H80.4397V20.88C80.4397 24.8 82.2397 31.52 97.8397 31.52H100.6ZM130.538 1.24H121.218V31H130.538V1.24ZM155.445 31.52C172.445 31.52 175.405 23.2 175.405 19.44V19H165.525C165.285 19.68 164.325 24.28 154.685 24.28C146.005 24.28 143.645 19.64 143.645 16.12V15.64C143.645 11.92 145.685 7.92 154.605 7.92C164.045 7.92 165.245 12.08 165.485 12.88H175.365V12.44C175.365 8.96 172.685 0.719999 155.445 0.719999H153.805C136.205 0.719999 133.885 10.04 133.885 15.44V16.6C133.885 21.88 136.565 31.52 153.805 31.52H155.445Z" fill="#C4C4C4"/>
</svg>
