<svg width="153" height="20" viewBox="0 0 153 20" fill="none" xmlns="http://www.w3.org/2000/svg">
<path d="M12.552 19.312C21.528 19.312 23.016 16.288 23.016 13.336V13C23.016 9.448 20.304 7.816 13.584 7.696L10.584 7.648C6.936 7.576 6.456 6.88 6.456 6.112C6.456 5.344 6.768 4.576 11.088 4.576H11.472C16.152 4.576 16.512 6.04 16.632 6.712H22.44V6.472C22.44 3.784 20.52 0.831999 12.072 0.831999H10.416C2.28 0.831999 0.696 3.616 0.696 6.28V6.496C0.696 9.28 2.736 11.536 9.408 11.728L12.48 11.8C16.608 11.92 17.16 12.568 17.16 13.6C17.16 14.56 16.632 15.496 11.928 15.496H11.592C6.984 15.496 6.36 13.744 6.288 12.664H0.456V12.928C0.456 15.28 1.536 19.312 10.896 19.312H12.552ZM30.0347 1.144H24.6827V19H30.0347V1.144ZM42.6679 19.36C50.6359 19.36 51.9079 15.664 51.9079 12.688V12.256C51.9079 9.328 50.5399 5.728 42.6679 5.728H40.9639C33.4759 5.728 31.6999 9.28 31.6999 12.256V12.688C31.6999 15.664 33.4999 19.36 40.9879 19.36H42.6679ZM41.8279 15.88C38.1799 15.88 37.1719 14.056 37.1719 12.544V12.424C37.1719 10.792 38.1799 9.16 41.8279 9.16H41.8519C45.4519 9.16 46.4839 10.816 46.4839 12.424V12.544C46.4839 14.056 45.4759 15.88 41.8279 15.88ZM62.4998 19L65.6678 10.456L68.8358 19H74.4998L79.4918 6.088H74.4998L71.6438 14.344L68.6438 6.088H63.0278L60.1238 14.344L57.1718 6.088H51.6037L56.9558 19H62.4998ZM99.849 0.831999C88.545 0.831999 87.273 6.472 87.273 9.664V10.384C87.273 13.528 88.545 19.312 99.849 19.312H100.881C112.137 19.312 113.433 13.528 113.433 10.384V9.664C113.433 6.472 112.113 0.831999 100.881 0.831999H99.849ZM107.577 10.168C107.577 12.232 106.353 14.968 100.353 14.968C94.305 14.968 93.129 12.16 93.129 10.12V9.832C93.129 7.792 94.209 5.152 100.353 5.152C106.401 5.152 107.577 7.792 107.577 9.832V10.168ZM120.55 12.328C120.55 10.672 121.534 9.208 123.334 9.208H123.358C125.374 9.208 126.094 10.648 126.094 12.304H131.254V11.56C131.254 8.224 129.742 5.8 125.998 5.8H125.734C122.518 5.8 120.958 7.648 120.502 8.368V6.088H115.198V19H120.55V12.328ZM132.847 1.144V19H137.791C137.863 18.4 137.959 17.68 138.127 17.176C138.631 17.68 140.815 19.312 144.511 19.312H144.919C150.655 19.312 152.983 16.192 152.983 12.712V12.256C152.983 8.728 150.943 5.776 145.087 5.776H144.655C140.791 5.776 138.775 7.432 138.199 7.888V1.144H132.847ZM138.199 12.448C138.199 10.792 139.663 9.112 142.855 9.112H142.999C146.479 9.112 147.511 10.792 147.511 12.448V12.544C147.511 14.104 146.479 15.904 142.999 15.904H142.855C139.711 15.904 138.199 14.152 138.199 12.544V12.448Z" fill="black"/>
</svg>
