<svg width="302" height="56" viewBox="0 0 302 56" fill="none" xmlns="http://www.w3.org/2000/svg">
<path d="M6.688 12.096C8.336 12.096 9.808 11.536 10.8 10.448L10.048 9.696C9.136 10.64 8.016 11.04 6.736 11.04C4.032 11.04 2 9.056 2 6.4C2 3.744 4.032 1.76 6.736 1.76C8.016 1.76 9.136 2.16 10.048 3.088L10.8 2.336C9.808 1.248 8.336 0.704 6.704 0.704C3.328 0.704 0.832 3.12 0.832 6.4C0.832 9.68 3.328 12.096 6.688 12.096ZM17.503 3.52C16.175 3.52 14.927 3.936 14.079 4.656L14.591 5.504C15.279 4.896 16.303 4.512 17.391 4.512C18.959 4.512 19.775 5.296 19.775 6.736V7.248H17.103C14.687 7.248 13.855 8.336 13.855 9.632C13.855 11.088 15.023 12.08 16.927 12.08C18.319 12.08 19.311 11.552 19.823 10.688V12H20.911V6.784C20.911 4.608 19.679 3.52 17.503 3.52ZM17.103 11.184C15.759 11.184 14.975 10.576 14.975 9.6C14.975 8.736 15.503 8.096 17.135 8.096H19.775V9.472C19.327 10.576 18.383 11.184 17.103 11.184ZM27.8525 12.08C30.0445 12.08 31.3245 11.136 31.3245 9.68C31.3245 6.448 25.8685 8.16 25.8685 5.888C25.8685 5.088 26.5405 4.496 28.0605 4.496C28.9245 4.496 29.8045 4.704 30.5405 5.216L31.0365 4.304C30.3325 3.824 29.1485 3.52 28.0605 3.52C25.9165 3.52 24.7325 4.544 24.7325 5.92C24.7325 9.248 30.1885 7.52 30.1885 9.712C30.1885 10.544 29.5325 11.088 27.9325 11.088C26.7485 11.088 25.6125 10.672 24.9405 10.144L24.4285 11.04C25.1165 11.632 26.4605 12.08 27.8525 12.08ZM39.0566 10.672C38.7366 10.96 38.2726 11.104 37.8086 11.104C36.8646 11.104 36.3526 10.56 36.3526 9.568V4.544H38.9126V3.584H36.3526V1.744H35.2166V3.584H33.7126V4.544H35.2166V9.632C35.2166 11.184 36.0966 12.08 37.6806 12.08C38.3366 12.08 39.0086 11.888 39.4566 11.488L39.0566 10.672ZM52.3521 12.08C54.8161 12.08 56.6241 10.288 56.6241 7.792C56.6241 5.296 54.8161 3.52 52.3521 3.52C49.8881 3.52 48.0641 5.296 48.0641 7.792C48.0641 10.288 49.8881 12.08 52.3521 12.08ZM52.3521 11.072C50.5601 11.072 49.2161 9.76 49.2161 7.792C49.2161 5.824 50.5601 4.512 52.3521 4.512C54.1441 4.512 55.4721 5.824 55.4721 7.792C55.4721 9.76 54.1441 11.072 52.3521 11.072ZM66.9914 3.584V8C66.9914 9.92 65.8874 11.056 64.1274 11.056C62.5274 11.056 61.5994 10.144 61.5994 8.352V3.584H60.4634V8.464C60.4634 10.88 61.8714 12.08 64.0154 12.08C65.3594 12.08 66.4474 11.488 67.0394 10.464V12H68.1274V3.584H66.9914ZM76.941 10.672C76.621 10.96 76.157 11.104 75.693 11.104C74.749 11.104 74.237 10.56 74.237 9.568V4.544H76.797V3.584H74.237V1.744H73.101V3.584H71.597V4.544H73.101V9.632C73.101 11.184 73.981 12.08 75.565 12.08C76.221 12.08 76.893 11.888 77.341 11.488L76.941 10.672ZM89.7405 3.52C88.4125 3.52 87.1645 3.936 86.3165 4.656L86.8285 5.504C87.5165 4.896 88.5405 4.512 89.6285 4.512C91.1965 4.512 92.0125 5.296 92.0125 6.736V7.248H89.3405C86.9245 7.248 86.0925 8.336 86.0925 9.632C86.0925 11.088 87.2605 12.08 89.1645 12.08C90.5565 12.08 91.5485 11.552 92.0605 10.688V12H93.1485V6.784C93.1485 4.608 91.9165 3.52 89.7405 3.52ZM89.3405 11.184C87.9965 11.184 87.2125 10.576 87.2125 9.6C87.2125 8.736 87.7405 8.096 89.3725 8.096H92.0125V9.472C91.5645 10.576 90.6205 11.184 89.3405 11.184ZM104.709 5.232V3.584H103.621V12H104.757V7.712C104.757 5.728 105.829 4.608 107.589 4.608C107.669 4.608 107.765 4.624 107.861 4.624V3.52C106.309 3.52 105.237 4.112 104.709 5.232ZM114.447 3.52C113.119 3.52 111.871 3.936 111.023 4.656L111.535 5.504C112.223 4.896 113.247 4.512 114.335 4.512C115.903 4.512 116.719 5.296 116.719 6.736V7.248H114.047C111.631 7.248 110.799 8.336 110.799 9.632C110.799 11.088 111.967 12.08 113.871 12.08C115.263 12.08 116.255 11.552 116.767 10.688V12H117.855V6.784C117.855 4.608 116.623 3.52 114.447 3.52ZM114.047 11.184C112.703 11.184 111.919 10.576 111.919 9.6C111.919 8.736 112.447 8.096 114.079 8.096H116.719V9.472C116.271 10.576 115.327 11.184 114.047 11.184ZM129.116 0.127999V5.184C128.412 4.096 127.26 3.52 125.916 3.52C123.516 3.52 121.724 5.248 121.724 7.792C121.724 10.336 123.516 12.08 125.916 12.08C127.308 12.08 128.476 11.472 129.164 10.336V12H130.252V0.127999H129.116ZM126.012 11.072C124.22 11.072 122.876 9.76 122.876 7.792C122.876 5.824 124.22 4.512 126.012 4.512C127.788 4.512 129.132 5.824 129.132 7.792C129.132 9.76 127.788 11.072 126.012 11.072ZM135.591 1.744C136.071 1.744 136.423 1.376 136.423 0.912C136.423 0.48 136.055 0.127999 135.591 0.127999C135.127 0.127999 134.759 0.495999 134.759 0.927999C134.759 1.376 135.127 1.744 135.591 1.744ZM135.015 12H136.151V3.584H135.015V12ZM143.856 3.52C142.528 3.52 141.28 3.936 140.432 4.656L140.944 5.504C141.632 4.896 142.656 4.512 143.744 4.512C145.312 4.512 146.128 5.296 146.128 6.736V7.248H143.456C141.04 7.248 140.208 8.336 140.208 9.632C140.208 11.088 141.376 12.08 143.28 12.08C144.672 12.08 145.664 11.552 146.176 10.688V12H147.264V6.784C147.264 4.608 146.032 3.52 143.856 3.52ZM143.456 11.184C142.112 11.184 141.328 10.576 141.328 9.6C141.328 8.736 141.856 8.096 143.488 8.096H146.128V9.472C145.68 10.576 144.736 11.184 143.456 11.184ZM156.238 3.52C154.782 3.52 153.646 4.112 153.038 5.136V3.584H151.95V12H153.086V7.584C153.086 5.664 154.222 4.544 156.03 4.544C157.63 4.544 158.558 5.456 158.558 7.232V12H159.694V7.12C159.694 4.704 158.286 3.52 156.238 3.52ZM164.954 1.744C165.434 1.744 165.786 1.376 165.786 0.912C165.786 0.48 165.418 0.127999 164.954 0.127999C164.49 0.127999 164.122 0.495999 164.122 0.927999C164.122 1.376 164.49 1.744 164.954 1.744ZM164.378 12H165.514V3.584H164.378V12ZM174.307 10.672C173.987 10.96 173.523 11.104 173.059 11.104C172.115 11.104 171.603 10.56 171.603 9.568V4.544H174.163V3.584H171.603V1.744H170.467V3.584H168.963V4.544H170.467V9.632C170.467 11.184 171.347 12.08 172.931 12.08C173.587 12.08 174.259 11.888 174.707 11.488L174.307 10.672ZM185.422 7.792C185.422 5.264 183.71 3.52 181.342 3.52C178.974 3.52 177.23 5.296 177.23 7.792C177.23 10.288 179.022 12.08 181.646 12.08C182.974 12.08 184.142 11.6 184.894 10.704L184.254 9.968C183.614 10.704 182.702 11.072 181.678 11.072C179.838 11.072 178.494 9.904 178.366 8.144H185.406C185.406 8.016 185.422 7.888 185.422 7.792ZM181.342 4.496C182.99 4.496 184.19 5.648 184.334 7.296H178.366C178.51 5.648 179.71 4.496 181.342 4.496ZM198.562 12.08C201.026 12.08 202.834 10.288 202.834 7.792C202.834 5.296 201.026 3.52 198.562 3.52C196.098 3.52 194.274 5.296 194.274 7.792C194.274 10.288 196.098 12.08 198.562 12.08ZM198.562 11.072C196.77 11.072 195.426 9.76 195.426 7.792C195.426 5.824 196.77 4.512 198.562 4.512C200.354 4.512 201.682 5.824 201.682 7.792C201.682 9.76 200.354 11.072 198.562 11.072ZM207.841 5.232V3.584H206.753V12H207.889V7.712C207.889 5.728 208.961 4.608 210.721 4.608C210.801 4.608 210.897 4.624 210.993 4.624V3.52C209.441 3.52 208.369 4.112 207.841 5.232ZM218.986 3.52C217.642 3.52 216.49 4.096 215.786 5.184V0.127999H214.65V12H215.738V10.336C216.426 11.472 217.594 12.08 218.986 12.08C221.386 12.08 223.178 10.336 223.178 7.792C223.178 5.248 221.386 3.52 218.986 3.52ZM218.906 11.072C217.114 11.072 215.77 9.76 215.77 7.792C215.77 5.824 217.114 4.512 218.906 4.512C220.682 4.512 222.042 5.824 222.042 7.792C222.042 9.76 220.682 11.072 218.906 11.072ZM236.913 10.672C236.593 10.96 236.129 11.104 235.665 11.104C234.721 11.104 234.209 10.56 234.209 9.568V4.544H236.769V3.584H234.209V1.744H233.073V3.584H231.569V4.544H233.073V9.632C233.073 11.184 233.953 12.08 235.537 12.08C236.193 12.08 236.865 11.888 237.313 11.488L236.913 10.672ZM245.269 3.52C243.845 3.52 242.741 4.08 242.117 5.056V0.127999H240.981V12H242.117V7.584C242.117 5.664 243.253 4.544 245.061 4.544C246.661 4.544 247.589 5.456 247.589 7.232V12H248.725V7.12C248.725 4.704 247.317 3.52 245.269 3.52ZM256.353 3.52C255.025 3.52 253.777 3.936 252.929 4.656L253.441 5.504C254.129 4.896 255.153 4.512 256.241 4.512C257.809 4.512 258.625 5.296 258.625 6.736V7.248H255.953C253.537 7.248 252.705 8.336 252.705 9.632C252.705 11.088 253.873 12.08 255.777 12.08C257.169 12.08 258.161 11.552 258.673 10.688V12H259.761V6.784C259.761 4.608 258.529 3.52 256.353 3.52ZM255.953 11.184C254.609 11.184 253.825 10.576 253.825 9.6C253.825 8.736 254.353 8.096 255.985 8.096H258.625V9.472C258.177 10.576 257.233 11.184 255.953 11.184ZM268.478 10.672C268.158 10.96 267.694 11.104 267.23 11.104C266.286 11.104 265.774 10.56 265.774 9.568V4.544H268.334V3.584H265.774V1.744H264.638V3.584H263.134V4.544H264.638V9.632C264.638 11.184 265.518 12.08 267.102 12.08C267.758 12.08 268.43 11.888 268.878 11.488L268.478 10.672ZM5.92 23.52C4.576 23.52 3.424 24.096 2.72 25.184V20.128H1.584V32H2.672V30.336C3.36 31.472 4.528 32.08 5.92 32.08C8.32 32.08 10.112 30.336 10.112 27.792C10.112 25.248 8.32 23.52 5.92 23.52ZM5.84 31.072C4.048 31.072 2.704 29.76 2.704 27.792C2.704 25.824 4.048 24.512 5.84 24.512C7.616 24.512 8.976 25.824 8.976 27.792C8.976 29.76 7.616 31.072 5.84 31.072ZM15.1158 25.232V23.584H14.0278V32H15.1638V27.712C15.1638 25.728 16.2358 24.608 17.9958 24.608C18.0758 24.608 18.1718 24.624 18.2678 24.624V23.52C16.7158 23.52 15.6438 24.112 15.1158 25.232ZM29.1905 27.792C29.1905 25.264 27.4785 23.52 25.1105 23.52C22.7425 23.52 20.9985 25.296 20.9985 27.792C20.9985 30.288 22.7905 32.08 25.4145 32.08C26.7425 32.08 27.9105 31.6 28.6625 30.704L28.0225 29.968C27.3825 30.704 26.4705 31.072 25.4465 31.072C23.6065 31.072 22.2625 29.904 22.1345 28.144H29.1745C29.1745 28.016 29.1905 27.888 29.1905 27.792ZM25.1105 24.496C26.7585 24.496 27.9585 25.648 28.1025 27.296H22.1345C22.2785 25.648 23.4785 24.496 25.1105 24.496ZM35.8124 23.52C34.4844 23.52 33.2364 23.936 32.3884 24.656L32.9004 25.504C33.5884 24.896 34.6124 24.512 35.7004 24.512C37.2684 24.512 38.0844 25.296 38.0844 26.736V27.248H35.4124C32.9964 27.248 32.1644 28.336 32.1644 29.632C32.1644 31.088 33.3324 32.08 35.2364 32.08C36.6284 32.08 37.6204 31.552 38.1324 30.688V32H39.2204V26.784C39.2204 24.608 37.9884 23.52 35.8124 23.52ZM35.4124 31.184C34.0684 31.184 33.2844 30.576 33.2844 29.6C33.2844 28.736 33.8124 28.096 35.4444 28.096H38.0844V29.472C37.6364 30.576 36.6924 31.184 35.4124 31.184ZM50.4179 32H51.8099L47.8739 27.024L51.4739 23.584H50.0659L45.0419 28.176V20.128H43.9059V32H45.0419V29.6L47.0259 27.776L50.4179 32ZM57.1213 32.08C59.3133 32.08 60.5933 31.136 60.5933 29.68C60.5933 26.448 55.1373 28.16 55.1373 25.888C55.1373 25.088 55.8093 24.496 57.3293 24.496C58.1933 24.496 59.0733 24.704 59.8093 25.216L60.3053 24.304C59.6013 23.824 58.4173 23.52 57.3293 23.52C55.1853 23.52 54.0013 24.544 54.0013 25.92C54.0013 29.248 59.4573 27.52 59.4573 29.712C59.4573 30.544 58.8013 31.088 57.2013 31.088C56.0173 31.088 54.8813 30.672 54.2093 30.144L53.6973 31.04C54.3853 31.632 55.7293 32.08 57.1213 32.08ZM70.6569 21.744C71.1369 21.744 71.4889 21.376 71.4889 20.912C71.4889 20.48 71.1209 20.128 70.6569 20.128C70.1929 20.128 69.8249 20.496 69.8249 20.928C69.8249 21.376 70.1929 21.744 70.6569 21.744ZM70.0809 32H71.2169V23.584H70.0809V32ZM80.2658 23.52C78.8098 23.52 77.6738 24.112 77.0658 25.136V23.584H75.9778V32H77.1138V27.584C77.1138 25.664 78.2498 24.544 80.0578 24.544C81.6578 24.544 82.5858 25.456 82.5858 27.232V32H83.7218V27.12C83.7218 24.704 82.3138 23.52 80.2658 23.52ZM92.4379 30.672C92.1179 30.96 91.6539 31.104 91.1899 31.104C90.2459 31.104 89.7339 30.56 89.7339 29.568V24.544H92.2939V23.584H89.7339V21.744H88.5979V23.584H87.0939V24.544H88.5979V29.632C88.5979 31.184 89.4779 32.08 91.0619 32.08C91.7179 32.08 92.3899 31.888 92.8379 31.488L92.4379 30.672ZM99.649 32.08C102.113 32.08 103.921 30.288 103.921 27.792C103.921 25.296 102.113 23.52 99.649 23.52C97.185 23.52 95.361 25.296 95.361 27.792C95.361 30.288 97.185 32.08 99.649 32.08ZM99.649 31.072C97.857 31.072 96.513 29.76 96.513 27.792C96.513 25.824 97.857 24.512 99.649 24.512C101.441 24.512 102.769 25.824 102.769 27.792C102.769 29.76 101.441 31.072 99.649 31.072ZM116.572 23.52C115.244 23.52 113.996 23.936 113.148 24.656L113.66 25.504C114.348 24.896 115.372 24.512 116.46 24.512C118.028 24.512 118.844 25.296 118.844 26.736V27.248H116.172C113.756 27.248 112.924 28.336 112.924 29.632C112.924 31.088 114.092 32.08 115.996 32.08C117.388 32.08 118.38 31.552 118.892 30.688V32H119.98V26.784C119.98 24.608 118.748 23.52 116.572 23.52ZM116.172 31.184C114.828 31.184 114.044 30.576 114.044 29.6C114.044 28.736 114.572 28.096 116.204 28.096H118.844V29.472C118.396 30.576 117.452 31.184 116.172 31.184ZM132.709 32.08C134.901 32.08 136.181 31.136 136.181 29.68C136.181 26.448 130.725 28.16 130.725 25.888C130.725 25.088 131.397 24.496 132.917 24.496C133.781 24.496 134.661 24.704 135.397 25.216L135.893 24.304C135.189 23.824 134.005 23.52 132.917 23.52C130.773 23.52 129.589 24.544 129.589 25.92C129.589 29.248 135.045 27.52 135.045 29.712C135.045 30.544 134.389 31.088 132.789 31.088C131.605 31.088 130.469 30.672 129.797 30.144L129.285 31.04C129.973 31.632 131.317 32.08 132.709 32.08ZM139.881 32H141.017V20.128H139.881V32ZM149.218 32.08C151.682 32.08 153.49 30.288 153.49 27.792C153.49 25.296 151.682 23.52 149.218 23.52C146.754 23.52 144.93 25.296 144.93 27.792C144.93 30.288 146.754 32.08 149.218 32.08ZM149.218 31.072C147.426 31.072 146.082 29.76 146.082 27.792C146.082 25.824 147.426 24.512 149.218 24.512C151.01 24.512 152.338 25.824 152.338 27.792C152.338 29.76 151.01 31.072 149.218 31.072ZM168.487 23.584L165.815 30.736L163.127 23.584H162.151L159.447 30.736L156.807 23.584H155.719L158.887 32H159.959L162.615 25.104L165.271 32H166.343L169.527 23.584H168.487ZM173.413 21.744C173.893 21.744 174.245 21.376 174.245 20.912C174.245 20.48 173.877 20.128 173.413 20.128C172.949 20.128 172.581 20.496 172.581 20.928C172.581 21.376 172.949 21.744 173.413 21.744ZM172.837 32H173.973V23.584H172.837V32ZM183.022 23.52C181.566 23.52 180.43 24.112 179.822 25.136V23.584H178.734V32H179.87V27.584C179.87 25.664 181.006 24.544 182.814 24.544C184.414 24.544 185.342 25.456 185.342 27.232V32H186.478V27.12C186.478 24.704 185.07 23.52 183.022 23.52ZM197.897 23.584V25.2C197.193 24.096 195.977 23.52 194.569 23.52C192.169 23.52 190.345 25.168 190.345 27.584C190.345 30 192.169 31.68 194.569 31.68C195.945 31.68 197.145 31.12 197.849 30.048V31.12C197.849 33.2 196.873 34.176 194.745 34.176C193.449 34.176 192.233 33.744 191.433 33.024L190.857 33.888C191.737 34.72 193.241 35.184 194.777 35.184C197.561 35.184 198.985 33.872 198.985 30.976V23.584H197.897ZM194.681 30.672C192.825 30.672 191.497 29.408 191.497 27.584C191.497 25.76 192.825 24.512 194.681 24.512C196.537 24.512 197.881 25.76 197.881 27.584C197.881 29.408 196.537 30.672 194.681 30.672ZM209.742 22.544V23.584H208.238V24.544H209.742V32H210.878V24.544H213.438V23.584H210.846V22.592C210.846 21.552 211.358 21.008 212.334 21.008C212.814 21.008 213.262 21.152 213.582 21.424L213.966 20.576C213.55 20.224 212.91 20.048 212.286 20.048C210.638 20.048 209.742 21.04 209.742 22.544ZM216.83 20.128C216.366 20.128 215.998 20.496 215.998 20.928C215.998 21.376 216.366 21.744 216.83 21.744C217.31 21.744 217.662 21.376 217.662 20.912C217.662 20.48 217.294 20.128 216.83 20.128ZM216.254 32H217.39V23.584H216.254V32ZM229.509 27.792C229.509 25.264 227.797 23.52 225.429 23.52C223.061 23.52 221.317 25.296 221.317 27.792C221.317 30.288 223.109 32.08 225.733 32.08C227.061 32.08 228.229 31.6 228.981 30.704L228.341 29.968C227.701 30.704 226.789 31.072 225.765 31.072C223.925 31.072 222.581 29.904 222.453 28.144H229.493C229.493 28.016 229.509 27.888 229.509 27.792ZM225.429 24.496C227.077 24.496 228.277 25.648 228.421 27.296H222.453C222.597 25.648 223.797 24.496 225.429 24.496ZM233.421 32H234.557V20.128H233.421V32ZM245.862 20.128V25.184C245.158 24.096 244.006 23.52 242.662 23.52C240.262 23.52 238.47 25.248 238.47 27.792C238.47 30.336 240.262 32.08 242.662 32.08C244.054 32.08 245.222 31.472 245.91 30.336V32H246.998V20.128H245.862ZM242.758 31.072C240.966 31.072 239.622 29.76 239.622 27.792C239.622 25.824 240.966 24.512 242.758 24.512C244.534 24.512 245.878 25.824 245.878 27.792C245.878 29.76 244.534 31.072 242.758 31.072ZM263.998 23.584V28C263.998 29.92 262.894 31.056 261.134 31.056C259.534 31.056 258.606 30.144 258.606 28.352V23.584H257.47V28.464C257.47 30.88 258.878 32.08 261.022 32.08C262.366 32.08 263.454 31.488 264.046 30.464V32H265.134V23.584H263.998ZM274.251 23.52C272.859 23.52 271.691 24.128 271.003 25.248V23.584H269.915V35.104H271.051V30.416C271.755 31.504 272.907 32.08 274.251 32.08C276.651 32.08 278.443 30.352 278.443 27.792C278.443 25.248 276.651 23.52 274.251 23.52ZM274.171 31.072C272.379 31.072 271.035 29.76 271.035 27.792C271.035 25.84 272.379 24.512 274.171 24.512C275.947 24.512 277.307 25.84 277.307 27.792C277.307 29.76 275.947 31.072 274.171 31.072ZM285.799 32.08C288.263 32.08 290.071 30.288 290.071 27.792C290.071 25.296 288.263 23.52 285.799 23.52C283.335 23.52 281.511 25.296 281.511 27.792C281.511 30.288 283.335 32.08 285.799 32.08ZM285.799 31.072C284.007 31.072 282.663 29.76 282.663 27.792C282.663 25.824 284.007 24.512 285.799 24.512C287.591 24.512 288.919 25.824 288.919 27.792C288.919 29.76 287.591 31.072 285.799 31.072ZM298.278 23.52C296.822 23.52 295.686 24.112 295.078 25.136V23.584H293.99V32H295.126V27.584C295.126 25.664 296.262 24.544 298.07 24.544C299.67 24.544 300.598 25.456 300.598 27.232V32H301.734V27.12C301.734 24.704 300.326 23.52 298.278 23.52ZM2.16 41.744C2.64 41.744 2.992 41.376 2.992 40.912C2.992 40.48 2.624 40.128 2.16 40.128C1.696 40.128 1.328 40.496 1.328 40.928C1.328 41.376 1.696 41.744 2.16 41.744ZM1.584 52H2.72V43.584H1.584V52ZM17.9769 43.52C16.4569 43.52 15.2569 44.208 14.6489 45.296C14.1369 44.112 13.0489 43.52 11.6569 43.52C10.2489 43.52 9.16088 44.112 8.56888 45.12V43.584H7.48088V52H8.61687V47.584C8.61687 45.664 9.72088 44.544 11.4329 44.544C12.9689 44.544 13.8649 45.456 13.8649 47.232V52H15.0009V47.584C15.0009 45.664 16.0889 44.544 17.8169 44.544C19.3369 44.544 20.2329 45.456 20.2329 47.232V52H21.3689V47.12C21.3689 44.704 20.0249 43.52 17.9769 43.52ZM30.3856 43.52C28.9936 43.52 27.8256 44.128 27.1376 45.248V43.584H26.0496V55.104H27.1856V50.416C27.8896 51.504 29.0416 52.08 30.3856 52.08C32.7856 52.08 34.5776 50.352 34.5776 47.792C34.5776 45.248 32.7856 43.52 30.3856 43.52ZM30.3056 51.072C28.5136 51.072 27.1696 49.76 27.1696 47.792C27.1696 45.84 28.5136 44.512 30.3056 44.512C32.0816 44.512 33.4416 45.84 33.4416 47.792C33.4416 49.76 32.0816 51.072 30.3056 51.072ZM41.3905 43.52C40.0625 43.52 38.8145 43.936 37.9665 44.656L38.4785 45.504C39.1665 44.896 40.1905 44.512 41.2785 44.512C42.8465 44.512 43.6625 45.296 43.6625 46.736V47.248H40.9905C38.5745 47.248 37.7425 48.336 37.7425 49.632C37.7425 51.088 38.9105 52.08 40.8145 52.08C42.2065 52.08 43.1985 51.552 43.7105 50.688V52H44.7985V46.784C44.7985 44.608 43.5665 43.52 41.3905 43.52ZM40.9905 51.184C39.6465 51.184 38.8625 50.576 38.8625 49.6C38.8625 48.736 39.3905 48.096 41.0225 48.096H43.6625V49.472C43.2145 50.576 42.2705 51.184 40.9905 51.184ZM53.0033 52.08C54.4273 52.08 55.6273 51.504 56.2993 50.416L55.4513 49.84C54.8753 50.688 53.9793 51.072 53.0033 51.072C51.1633 51.072 49.8193 49.776 49.8193 47.792C49.8193 45.824 51.1633 44.512 53.0033 44.512C53.9793 44.512 54.8753 44.912 55.4513 45.76L56.2993 45.184C55.6273 44.08 54.4273 43.52 53.0033 43.52C50.4913 43.52 48.6673 45.28 48.6673 47.792C48.6673 50.304 50.4913 52.08 53.0033 52.08ZM64.2566 50.672C63.9366 50.96 63.4726 51.104 63.0086 51.104C62.0646 51.104 61.5526 50.56 61.5526 49.568V44.544H64.1126V43.584H61.5526V41.744H60.4166V43.584H58.9126V44.544H60.4166V49.632C60.4166 51.184 61.2966 52.08 62.8806 52.08C63.5366 52.08 64.2086 51.888 64.6566 51.488L64.2566 50.672ZM85.4241 43.584L82.7521 50.736L80.0641 43.584H79.0881L76.3841 50.736L73.7441 43.584H72.6561L75.8241 52H76.8961L79.5521 45.104L82.2081 52H83.2801L86.4641 43.584H85.4241ZM90.3506 41.744C90.8306 41.744 91.1826 41.376 91.1826 40.912C91.1826 40.48 90.8146 40.128 90.3506 40.128C89.8866 40.128 89.5186 40.496 89.5186 40.928C89.5186 41.376 89.8866 41.744 90.3506 41.744ZM89.7746 52H90.9106V43.584H89.7746V52ZM99.7035 50.672C99.3835 50.96 98.9195 51.104 98.4555 51.104C97.5115 51.104 96.9995 50.56 96.9995 49.568V44.544H99.5595V43.584H96.9995V41.744H95.8635V43.584H94.3595V44.544H95.8635V49.632C95.8635 51.184 96.7435 52.08 98.3275 52.08C98.9835 52.08 99.6555 51.888 100.104 51.488L99.7035 50.672ZM108.06 43.52C106.636 43.52 105.532 44.08 104.908 45.056V40.128H103.772V52H104.908V47.584C104.908 45.664 106.044 44.544 107.852 44.544C109.452 44.544 110.38 45.456 110.38 47.232V52H111.516V47.12C111.516 44.704 110.108 43.52 108.06 43.52ZM126.019 50.672C125.699 50.96 125.235 51.104 124.771 51.104C123.827 51.104 123.315 50.56 123.315 49.568V44.544H125.875V43.584H123.315V41.744H122.179V43.584H120.675V44.544H122.179V49.632C122.179 51.184 123.059 52.08 124.643 52.08C125.299 52.08 125.971 51.888 126.419 51.488L126.019 50.672ZM134.375 43.52C132.951 43.52 131.847 44.08 131.223 45.056V40.128H130.087V52H131.223V47.584C131.223 45.664 132.359 44.544 134.167 44.544C135.767 44.544 136.695 45.456 136.695 47.232V52H137.831V47.12C137.831 44.704 136.423 43.52 134.375 43.52ZM149.89 47.792C149.89 45.264 148.178 43.52 145.81 43.52C143.442 43.52 141.698 45.296 141.698 47.792C141.698 50.288 143.49 52.08 146.114 52.08C147.442 52.08 148.61 51.6 149.362 50.704L148.722 49.968C148.082 50.704 147.17 51.072 146.146 51.072C144.306 51.072 142.962 49.904 142.834 48.144H149.874C149.874 48.016 149.89 47.888 149.89 47.792ZM145.81 44.496C147.458 44.496 148.658 45.648 148.802 47.296H142.834C142.978 45.648 144.178 44.496 145.81 44.496ZM166.294 43.584V45.2C165.59 44.096 164.374 43.52 162.966 43.52C160.566 43.52 158.742 45.168 158.742 47.584C158.742 50 160.566 51.68 162.966 51.68C164.342 51.68 165.542 51.12 166.246 50.048V51.12C166.246 53.2 165.27 54.176 163.142 54.176C161.846 54.176 160.63 53.744 159.83 53.024L159.254 53.888C160.134 54.72 161.638 55.184 163.174 55.184C165.958 55.184 167.382 53.872 167.382 50.976V43.584H166.294ZM163.078 50.672C161.222 50.672 159.894 49.408 159.894 47.584C159.894 45.76 161.222 44.512 163.078 44.512C164.934 44.512 166.278 45.76 166.278 47.584C166.278 49.408 164.934 50.672 163.078 50.672ZM173.247 45.232V43.584H172.159V52H173.295V47.712C173.295 45.728 174.367 44.608 176.127 44.608C176.207 44.608 176.303 44.624 176.399 44.624V43.52C174.847 43.52 173.775 44.112 173.247 45.232ZM183.418 52.08C185.882 52.08 187.69 50.288 187.69 47.792C187.69 45.296 185.882 43.52 183.418 43.52C180.954 43.52 179.13 45.296 179.13 47.792C179.13 50.288 180.954 52.08 183.418 52.08ZM183.418 51.072C181.626 51.072 180.282 49.76 180.282 47.792C180.282 45.824 181.626 44.512 183.418 44.512C185.21 44.512 186.538 45.824 186.538 47.792C186.538 49.76 185.21 51.072 183.418 51.072ZM198.057 43.584V48C198.057 49.92 196.953 51.056 195.193 51.056C193.593 51.056 192.665 50.144 192.665 48.352V43.584H191.529V48.464C191.529 50.88 192.937 52.08 195.081 52.08C196.425 52.08 197.513 51.488 198.105 50.464V52H199.193V43.584H198.057ZM208.263 43.52C206.807 43.52 205.671 44.112 205.063 45.136V43.584H203.975V52H205.111V47.584C205.111 45.664 206.247 44.544 208.055 44.544C209.655 44.544 210.583 45.456 210.583 47.232V52H211.719V47.12C211.719 44.704 210.311 43.52 208.263 43.52ZM222.978 40.128V45.184C222.274 44.096 221.122 43.52 219.778 43.52C217.378 43.52 215.586 45.248 215.586 47.792C215.586 50.336 217.378 52.08 219.778 52.08C221.17 52.08 222.338 51.472 223.026 50.336V52H224.114V40.128H222.978ZM219.874 51.072C218.082 51.072 216.738 49.76 216.738 47.792C216.738 45.824 218.082 44.512 219.874 44.512C221.65 44.512 222.994 45.824 222.994 47.792C222.994 49.76 221.65 51.072 219.874 51.072ZM228.99 52.08C229.454 52.08 229.854 51.696 229.854 51.2C229.854 50.704 229.454 50.336 228.99 50.336C228.526 50.336 228.142 50.704 228.142 51.2C228.142 51.696 228.526 52.08 228.99 52.08Z" fill="#1F2326"/>
</svg>
