<svg width="196" height="24" viewBox="0 0 196 24" fill="none" xmlns="http://www.w3.org/2000/svg">
<path d="M0.368 19H5.96V11.968H17.96V19H23.552V1.144H17.96V7.648H5.96V1.144H0.368V19ZM35.1219 8.728C37.8339 8.728 39.0819 9.544 39.4419 10.912H30.8019C31.2099 9.544 32.4099 8.728 35.0979 8.728H35.1219ZM44.7699 14.44H39.4899C39.4179 14.752 38.8419 16.096 35.2899 16.096H35.2659C32.3139 16.096 31.0179 15.088 30.7059 13.576H44.8419V12.688C44.8419 9.544 43.4499 5.728 35.8659 5.728H34.4019C27.4179 5.728 25.4499 8.92 25.4499 12.232V12.76C25.4499 16.144 27.6579 19.36 34.5459 19.36H35.9139C43.6179 19.36 44.7699 16.216 44.7699 14.464V14.44ZM57.8639 13.264C57.8639 14.8 56.0159 16.336 53.1599 16.336C51.3359 16.336 50.8079 15.568 50.8079 14.872V14.848C50.8079 14.104 51.3839 13.864 52.7519 13.648L57.8639 12.856V13.264ZM58.0079 17.224C58.1999 18.448 59.0159 19 60.0479 19H64.3919V15.496H63.6959C63.1439 15.496 63.0239 15.232 63.0239 14.848V9.904C63.0239 8.032 62.5439 5.728 55.0559 5.728H53.7359C46.5359 5.728 46.0319 8.392 46.0319 10.096V10.144H50.9999C51.0719 9.712 51.1919 8.704 54.3839 8.704H54.5039C57.6479 8.704 57.8639 9.28 57.8639 9.76C57.8639 10.168 57.6479 10.36 57.0479 10.432L51.1439 10.984C47.2799 11.344 45.7199 12.472 45.7199 14.848V15.016C45.7199 17.224 47.3759 19.24 51.7199 19.24H52.0319C55.8239 19.24 57.4559 17.92 58.0079 17.224ZM71.0113 1.144H65.6593V19H71.0113V1.144ZM78.6284 1.144H73.2764V4.84H78.6284V1.144ZM78.6284 6.088H73.2764V19H78.6284V6.088ZM80.8936 19H86.2456V12.904C86.2456 10.792 87.8056 9.4 90.2056 9.4C92.5816 9.4 93.6616 10.624 93.6616 12.616V19H99.0616V10.84C99.0616 8.344 97.2856 5.8 92.7736 5.8H92.6056C88.7656 5.8 86.8456 7.648 86.1976 8.296V6.088H80.8936V19ZM110.669 9.136C114.029 9.136 115.541 10.528 115.541 12.064V12.16C115.541 13.648 114.053 15.136 110.669 15.136H110.525C107.237 15.136 106.109 13.6 106.109 12.136V12.016C106.109 10.576 107.069 9.136 110.525 9.136H110.669ZM111.941 23.68C119.861 23.68 121.013 18.976 121.013 16.648V6.088H115.637V7.816C114.941 7.168 113.213 5.776 108.917 5.776H108.413C102.677 5.776 100.661 8.656 100.661 11.776V12.256C100.661 15.592 103.037 18.424 109.085 18.424H109.373C113.429 18.424 115.013 17.056 115.661 16.48C115.661 18.136 115.037 20.2 111.053 20.2H110.981C107.309 20.2 106.925 19.312 106.853 19H101.453V19.072C101.453 20.104 102.125 23.68 110.237 23.68H111.941ZM142.747 0.831999C131.443 0.831999 130.171 6.472 130.171 9.664V10.384C130.171 13.528 131.443 19.312 142.747 19.312H143.779C155.035 19.312 156.331 13.528 156.331 10.384V9.664C156.331 6.472 155.011 0.831999 143.779 0.831999H142.747ZM150.475 10.168C150.475 12.232 149.251 14.968 143.251 14.968C137.203 14.968 136.027 12.16 136.027 10.12V9.832C136.027 7.792 137.107 5.152 143.251 5.152C149.299 5.152 150.475 7.792 150.475 9.832V10.168ZM163.449 12.328C163.449 10.672 164.433 9.208 166.233 9.208H166.257C168.273 9.208 168.993 10.648 168.993 12.304H174.153V11.56C174.153 8.224 172.641 5.8 168.897 5.8H168.633C165.417 5.8 163.857 7.648 163.401 8.368V6.088H158.097V19H163.449V12.328ZM175.745 1.144V19H180.689C180.761 18.4 180.857 17.68 181.025 17.176C181.529 17.68 183.713 19.312 187.409 19.312H187.817C193.553 19.312 195.881 16.192 195.881 12.712V12.256C195.881 8.728 193.841 5.776 187.985 5.776H187.553C183.689 5.776 181.673 7.432 181.097 7.888V1.144H175.745ZM181.097 12.448C181.097 10.792 182.561 9.112 185.753 9.112H185.897C189.377 9.112 190.409 10.792 190.409 12.448V12.544C190.409 14.104 189.377 15.904 185.897 15.904H185.753C182.609 15.904 181.097 14.152 181.097 12.544V12.448Z" fill="black"/>
</svg>
