<svg width="332" height="32" viewBox="0 0 332 32" fill="none" xmlns="http://www.w3.org/2000/svg">
<path d="M20.92 31.52C35.88 31.52 38.36 26.48 38.36 21.56V21C38.36 15.08 33.84 12.36 22.64 12.16L17.64 12.08C11.56 11.96 10.76 10.8 10.76 9.52C10.76 8.24 11.28 6.96 18.48 6.96H19.12C26.92 6.96 27.52 9.4 27.72 10.52H37.4V10.12C37.4 5.64 34.2 0.719999 20.12 0.719999H17.36C3.8 0.719999 1.16 5.36 1.16 9.8V10.16C1.16 14.8 4.56 18.56 15.68 18.88L20.8 19C27.68 19.2 28.6 20.28 28.6 22C28.6 23.6 27.72 25.16 19.88 25.16H19.32C11.64 25.16 10.6 22.24 10.48 20.44H0.76V20.88C0.76 24.8 2.56 31.52 18.16 31.52H20.92ZM50.8578 1.24H41.5378V31H50.8578V1.24ZM74.885 31.52C84.085 31.52 87.925 27.84 89.205 26.36C89.725 27.6 90.285 29.92 90.405 31H96.005V14.32H75.045V19.96H86.725V20.04C86.725 20.88 84.045 24.28 75.205 24.28C67.005 24.28 63.965 20.16 63.965 16.28V15.84C63.965 11.72 66.205 7.8 75.285 7.8C84.565 7.8 85.645 11.36 85.885 12.04H95.805V12C95.645 7.96 92.725 0.719999 76.085 0.719999H74.365C57.245 0.719999 54.205 9.64 54.205 15.44V16.56C54.205 22.52 57.925 31.52 74.045 31.52H74.885ZM100.249 1.24V31H109.449V11.28L129.649 31H138.849V1.24H129.649V19.96L110.649 1.24H100.249ZM167.253 18.84H155.973L161.493 7.68L167.253 18.84ZM173.493 31H183.533L167.613 1.24H155.533L140.493 31H149.973L152.653 25.56H170.693L173.493 31ZM191.108 31H200.508V8.28H213.348V1.24H178.308V8.28H191.108V31ZM236.373 31.44C251.613 31.44 254.653 21.28 254.653 15.68V1.24H245.333V15.12C245.333 18.96 243.573 23.72 235.573 23.72C227.453 23.72 225.733 18.96 225.733 15.12V1.24H216.373V15.68C216.373 21.28 218.973 31.44 234.933 31.44H236.373ZM268.163 8H282.283C285.003 8 286.043 9.32 286.043 10.88V10.92C286.043 12.56 284.963 13.84 282.283 13.84H268.163V8ZM268.163 20.44H280.323C284.923 20.44 286.523 22.04 286.523 25.68V29.12C286.523 30.2 286.683 30.64 286.963 31H296.443V30.8C296.163 30.32 295.883 29.56 295.883 27.16V22.8C295.883 18.96 293.283 16.84 290.243 15.96C292.203 15.32 295.763 13.72 295.763 9.44V8.96C295.763 4.68 292.763 1.24 282.843 1.24H258.843V31H268.163V20.44ZM299.546 1.24V31H331.306V24.08H308.746V19.2H330.386V12.4H308.746V8H330.906V1.24H299.546Z" fill="#C4C4C4"/>
</svg>
