<svg width="276" height="33" viewBox="0 0 276 33" fill="none" xmlns="http://www.w3.org/2000/svg">
<path d="M9.016 0.799999V5.792H2.008V0.799999H0.824V12H2.008V6.832H9.016V12H10.184V0.799999H9.016ZM22.5436 7.792C22.5436 5.264 20.8316 3.52 18.4636 3.52C16.0956 3.52 14.3516 5.296 14.3516 7.792C14.3516 10.288 16.1436 12.08 18.7676 12.08C20.0956 12.08 21.2636 11.6 22.0156 10.704L21.3756 9.968C20.7356 10.704 19.8236 11.072 18.7996 11.072C16.9596 11.072 15.6156 9.904 15.4876 8.144H22.5276C22.5276 8.016 22.5436 7.888 22.5436 7.792ZM18.4636 4.496C20.1116 4.496 21.3116 5.648 21.4556 7.296H15.4876C15.6316 5.648 16.8316 4.496 18.4636 4.496ZM29.1655 3.52C27.8375 3.52 26.5895 3.936 25.7415 4.656L26.2535 5.504C26.9415 4.896 27.9655 4.512 29.0535 4.512C30.6215 4.512 31.4375 5.296 31.4375 6.736V7.248H28.7655C26.3495 7.248 25.5175 8.336 25.5175 9.632C25.5175 11.088 26.6855 12.08 28.5895 12.08C29.9815 12.08 30.9735 11.552 31.4855 10.688V12H32.5735V6.784C32.5735 4.608 31.3415 3.52 29.1655 3.52ZM28.7655 11.184C27.4215 11.184 26.6375 10.576 26.6375 9.6C26.6375 8.736 27.1655 8.096 28.7975 8.096H31.4375V9.472C30.9895 10.576 30.0455 11.184 28.7655 11.184ZM37.259 12H38.395V0.127999H37.259V12ZM51.8874 3.52C50.5594 3.52 49.3114 3.936 48.4634 4.656L48.9754 5.504C49.6634 4.896 50.6874 4.512 51.7754 4.512C53.3434 4.512 54.1594 5.296 54.1594 6.736V7.248H51.4874C49.0714 7.248 48.2394 8.336 48.2394 9.632C48.2394 11.088 49.4074 12.08 51.3114 12.08C52.7034 12.08 53.6954 11.552 54.2074 10.688V12H55.2954V6.784C55.2954 4.608 54.0634 3.52 51.8874 3.52ZM51.4874 11.184C50.1434 11.184 49.3594 10.576 49.3594 9.6C49.3594 8.736 49.8874 8.096 51.5194 8.096H54.1594V9.472C53.7114 10.576 52.7674 11.184 51.4874 11.184ZM64.2689 3.52C62.8129 3.52 61.6769 4.112 61.0689 5.136V3.584H59.9809V12H61.1169V7.584C61.1169 5.664 62.2529 4.544 64.0609 4.544C65.6609 4.544 66.5889 5.456 66.5889 7.232V12H67.7249V7.12C67.7249 4.704 66.3169 3.52 64.2689 3.52ZM81.1405 3.52C79.8125 3.52 78.5645 3.936 77.7165 4.656L78.2285 5.504C78.9165 4.896 79.9405 4.512 81.0285 4.512C82.5965 4.512 83.4125 5.296 83.4125 6.736V7.248H80.7405C78.3245 7.248 77.4925 8.336 77.4925 9.632C77.4925 11.088 78.6605 12.08 80.5645 12.08C81.9565 12.08 82.9485 11.552 83.4605 10.688V12H84.5485V6.784C84.5485 4.608 83.3165 3.52 81.1405 3.52ZM80.7405 11.184C79.3965 11.184 78.6125 10.576 78.6125 9.6C78.6125 8.736 79.1405 8.096 80.7725 8.096H83.4125V9.472C82.9645 10.576 82.0205 11.184 80.7405 11.184ZM89.234 12H90.37V0.127999H89.234V12ZM95.1309 12H96.2669V0.127999H95.1309V12ZM106.98 3.584L103.812 10.736L100.644 3.584H99.4597L103.22 11.984L102.852 12.8C102.372 13.856 101.86 14.208 101.108 14.208C100.5 14.208 99.9877 13.984 99.5717 13.568L99.0437 14.416C99.5557 14.928 100.308 15.184 101.092 15.184C102.292 15.184 103.188 14.656 103.892 13.008L108.1 3.584H106.98ZM120.527 12.08C122.991 12.08 124.799 10.288 124.799 7.792C124.799 5.296 122.991 3.52 120.527 3.52C118.063 3.52 116.239 5.296 116.239 7.792C116.239 10.288 118.063 12.08 120.527 12.08ZM120.527 11.072C118.735 11.072 117.391 9.76 117.391 7.792C117.391 5.824 118.735 4.512 120.527 4.512C122.319 4.512 123.647 5.824 123.647 7.792C123.647 9.76 122.319 11.072 120.527 11.072ZM129.806 5.232V3.584H128.718V12H129.854V7.712C129.854 5.728 130.926 4.608 132.686 4.608C132.766 4.608 132.862 4.624 132.958 4.624V3.52C131.406 3.52 130.334 4.112 129.806 5.232ZM148.48 3.584L145.312 10.736L142.144 3.584H140.96L144.72 11.984L144.352 12.8C143.872 13.856 143.36 14.208 142.608 14.208C142 14.208 141.488 13.984 141.072 13.568L140.544 14.416C141.056 14.928 141.808 15.184 142.592 15.184C143.792 15.184 144.688 14.656 145.392 13.008L149.6 3.584H148.48ZM156.005 12.08C158.469 12.08 160.277 10.288 160.277 7.792C160.277 5.296 158.469 3.52 156.005 3.52C153.541 3.52 151.717 5.296 151.717 7.792C151.717 10.288 153.541 12.08 156.005 12.08ZM156.005 11.072C154.213 11.072 152.869 9.76 152.869 7.792C152.869 5.824 154.213 4.512 156.005 4.512C157.797 4.512 159.125 5.824 159.125 7.792C159.125 9.76 157.797 11.072 156.005 11.072ZM170.645 3.584V8C170.645 9.92 169.541 11.056 167.781 11.056C166.181 11.056 165.253 10.144 165.253 8.352V3.584H164.117V8.464C164.117 10.88 165.525 12.08 167.669 12.08C169.013 12.08 170.101 11.488 170.693 10.464V12H171.781V3.584H170.645ZM177.65 5.232V3.584H176.562V12H177.698V7.712C177.698 5.728 178.77 4.608 180.53 4.608C180.61 4.608 180.706 4.624 180.802 4.624V3.52C179.25 3.52 178.178 4.112 177.65 5.232ZM186.778 12.08C188.97 12.08 190.25 11.136 190.25 9.68C190.25 6.448 184.794 8.16 184.794 5.888C184.794 5.088 185.466 4.496 186.986 4.496C187.85 4.496 188.73 4.704 189.466 5.216L189.962 4.304C189.258 3.824 188.074 3.52 186.986 3.52C184.842 3.52 183.658 4.544 183.658 5.92C183.658 9.248 189.114 7.52 189.114 9.712C189.114 10.544 188.458 11.088 186.858 11.088C185.674 11.088 184.538 10.672 183.866 10.144L183.354 11.04C184.042 11.632 185.386 12.08 186.778 12.08ZM201.294 7.792C201.294 5.264 199.582 3.52 197.214 3.52C194.846 3.52 193.102 5.296 193.102 7.792C193.102 10.288 194.894 12.08 197.518 12.08C198.846 12.08 200.014 11.6 200.766 10.704L200.126 9.968C199.486 10.704 198.574 11.072 197.55 11.072C195.71 11.072 194.366 9.904 194.238 8.144H201.278C201.278 8.016 201.294 7.888 201.294 7.792ZM197.214 4.496C198.862 4.496 200.062 5.648 200.206 7.296H194.238C194.382 5.648 195.582 4.496 197.214 4.496ZM205.206 12H206.342V0.127999H205.206V12ZM213.887 1.008C214.367 1.008 214.815 1.152 215.135 1.424L215.519 0.575999C215.103 0.223999 214.463 0.0479994 213.839 0.0479994C212.191 0.0479994 211.295 1.04 211.295 2.544V3.584H209.791V4.544H211.295V12H212.431V4.544H214.991V3.584H212.399V2.592C212.399 1.552 212.911 1.008 213.887 1.008ZM227.944 10.672C227.624 10.96 227.16 11.104 226.696 11.104C225.752 11.104 225.24 10.56 225.24 9.568V4.544H227.8V3.584H225.24V1.744H224.104V3.584H222.6V4.544H224.104V9.632C224.104 11.184 224.984 12.08 226.568 12.08C227.224 12.08 227.896 11.888 228.344 11.488L227.944 10.672ZM235.155 12.08C237.619 12.08 239.427 10.288 239.427 7.792C239.427 5.296 237.619 3.52 235.155 3.52C232.691 3.52 230.867 5.296 230.867 7.792C230.867 10.288 232.691 12.08 235.155 12.08ZM235.155 11.072C233.363 11.072 232.019 9.76 232.019 7.792C232.019 5.824 233.363 4.512 235.155 4.512C236.947 4.512 238.275 5.824 238.275 7.792C238.275 9.76 236.947 11.072 235.155 11.072ZM251.918 1.008C252.398 1.008 252.846 1.152 253.166 1.424L253.55 0.575999C253.134 0.223999 252.494 0.0479994 251.87 0.0479994C250.222 0.0479994 249.326 1.04 249.326 2.544V3.584H247.822V4.544H249.326V12H250.462V4.544H253.022V3.584H250.43V2.592C250.43 1.552 250.942 1.008 251.918 1.008ZM262.604 3.584V8C262.604 9.92 261.5 11.056 259.74 11.056C258.14 11.056 257.212 10.144 257.212 8.352V3.584H256.076V8.464C256.076 10.88 257.484 12.08 259.628 12.08C260.972 12.08 262.06 11.488 262.652 10.464V12H263.74V3.584H262.604ZM268.522 12H269.658V0.127999H268.522V12ZM274.418 12H275.554V0.127999H274.418V12ZM4.872 23.52C3.448 23.52 2.344 24.08 1.72 25.056V20.128H0.584V32H1.72V27.584C1.72 25.664 2.856 24.544 4.664 24.544C6.264 24.544 7.192 25.456 7.192 27.232V32H8.328V27.12C8.328 24.704 6.92 23.52 4.872 23.52ZM20.3874 27.792C20.3874 25.264 18.6754 23.52 16.3074 23.52C13.9394 23.52 12.1954 25.296 12.1954 27.792C12.1954 30.288 13.9874 32.08 16.6114 32.08C17.9394 32.08 19.1074 31.6 19.8594 30.704L19.2194 29.968C18.5794 30.704 17.6674 31.072 16.6434 31.072C14.8034 31.072 13.4594 29.904 13.3314 28.144H20.3714C20.3714 28.016 20.3874 27.888 20.3874 27.792ZM16.3074 24.496C17.9554 24.496 19.1554 25.648 19.2994 27.296H13.3314C13.4754 25.648 14.6754 24.496 16.3074 24.496ZM27.0093 23.52C25.6813 23.52 24.4333 23.936 23.5853 24.656L24.0973 25.504C24.7853 24.896 25.8093 24.512 26.8973 24.512C28.4653 24.512 29.2813 25.296 29.2813 26.736V27.248H26.6093C24.1933 27.248 23.3613 28.336 23.3613 29.632C23.3613 31.088 24.5293 32.08 26.4333 32.08C27.8253 32.08 28.8173 31.552 29.3293 30.688V32H30.4173V26.784C30.4173 24.608 29.1853 23.52 27.0093 23.52ZM26.6093 31.184C25.2653 31.184 24.4813 30.576 24.4813 29.6C24.4813 28.736 25.0093 28.096 26.6413 28.096H29.2813V29.472C28.8333 30.576 27.8893 31.184 26.6093 31.184ZM35.1027 32H36.2387V20.128H35.1027V32ZM45.0629 30.672C44.7429 30.96 44.2789 31.104 43.8149 31.104C42.8709 31.104 42.3589 30.56 42.3589 29.568V24.544H44.9189V23.584H42.3589V21.744H41.2229V23.584H39.7189V24.544H41.2229V29.632C41.2229 31.184 42.1029 32.08 43.6869 32.08C44.3429 32.08 45.0149 31.888 45.4629 31.488L45.0629 30.672ZM53.4189 23.52C51.9949 23.52 50.8909 24.08 50.2669 25.056V20.128H49.1309V32H50.2669V27.584C50.2669 25.664 51.4029 24.544 53.2109 24.544C54.8109 24.544 55.7389 25.456 55.7389 27.232V32H56.8749V27.12C56.8749 24.704 55.4669 23.52 53.4189 23.52ZM70.7865 32.08C73.2505 32.08 75.0585 30.288 75.0585 27.792C75.0585 25.296 73.2505 23.52 70.7865 23.52C68.3225 23.52 66.4985 25.296 66.4985 27.792C66.4985 30.288 68.3225 32.08 70.7865 32.08ZM70.7865 31.072C68.9945 31.072 67.6505 29.76 67.6505 27.792C67.6505 25.824 68.9945 24.512 70.7865 24.512C72.5785 24.512 73.9065 25.824 73.9065 27.792C73.9065 29.76 72.5785 31.072 70.7865 31.072ZM84.6954 23.584L81.5114 30.752L78.3594 23.584H77.1754L80.9034 32H82.0714L85.8154 23.584H84.6954ZM96.1249 27.792C96.1249 25.264 94.4129 23.52 92.0449 23.52C89.6769 23.52 87.9329 25.296 87.9329 27.792C87.9329 30.288 89.7249 32.08 92.3489 32.08C93.6769 32.08 94.8449 31.6 95.5969 30.704L94.9569 29.968C94.3169 30.704 93.4049 31.072 92.3809 31.072C90.5409 31.072 89.1969 29.904 89.0689 28.144H96.1089C96.1089 28.016 96.1249 27.888 96.1249 27.792ZM92.0449 24.496C93.6929 24.496 94.8929 25.648 95.0369 27.296H89.0689C89.2129 25.648 90.4129 24.496 92.0449 24.496ZM101.125 25.232V23.584H100.037V32H101.173V27.712C101.173 25.728 102.245 24.608 104.005 24.608C104.085 24.608 104.181 24.624 104.277 24.624V23.52C102.725 23.52 101.653 24.112 101.125 25.232ZM116.79 23.52C115.462 23.52 114.214 23.936 113.366 24.656L113.878 25.504C114.566 24.896 115.59 24.512 116.678 24.512C118.246 24.512 119.062 25.296 119.062 26.736V27.248H116.39C113.974 27.248 113.142 28.336 113.142 29.632C113.142 31.088 114.31 32.08 116.214 32.08C117.606 32.08 118.598 31.552 119.11 30.688V32H120.198V26.784C120.198 24.608 118.966 23.52 116.79 23.52ZM116.39 31.184C115.046 31.184 114.262 30.576 114.262 29.6C114.262 28.736 114.79 28.096 116.422 28.096H119.062V29.472C118.614 30.576 117.67 31.184 116.39 31.184ZM133.455 21.008C133.935 21.008 134.383 21.152 134.703 21.424L135.087 20.576C134.671 20.224 134.031 20.048 133.407 20.048C131.759 20.048 130.863 21.04 130.863 22.544V23.584H129.359V24.544H130.863V32H131.999V24.544H134.559V23.584H131.967V22.592C131.967 21.552 132.479 21.008 133.455 21.008ZM144.897 27.792C144.897 25.264 143.185 23.52 140.817 23.52C138.449 23.52 136.705 25.296 136.705 27.792C136.705 30.288 138.497 32.08 141.121 32.08C142.449 32.08 143.617 31.6 144.369 30.704L143.729 29.968C143.089 30.704 142.177 31.072 141.153 31.072C139.313 31.072 137.969 29.904 137.841 28.144H144.881C144.881 28.016 144.897 27.888 144.897 27.792ZM140.817 24.496C142.465 24.496 143.665 25.648 143.809 27.296H137.841C137.985 25.648 139.185 24.496 140.817 24.496ZM159.965 23.584L157.293 30.736L154.605 23.584H153.629L150.925 30.736L148.285 23.584H147.197L150.365 32H151.437L154.093 25.104L156.749 32H157.821L161.005 23.584H159.965ZM172.359 32.08C174.551 32.08 175.831 31.136 175.831 29.68C175.831 26.448 170.375 28.16 170.375 25.888C170.375 25.088 171.047 24.496 172.567 24.496C173.431 24.496 174.311 24.704 175.047 25.216L175.543 24.304C174.839 23.824 173.655 23.52 172.567 23.52C170.423 23.52 169.239 24.544 169.239 25.92C169.239 29.248 174.695 27.52 174.695 29.712C174.695 30.544 174.039 31.088 172.439 31.088C171.255 31.088 170.119 30.672 169.447 30.144L168.935 31.04C169.623 31.632 170.967 32.08 172.359 32.08ZM186.875 27.792C186.875 25.264 185.163 23.52 182.795 23.52C180.427 23.52 178.683 25.296 178.683 27.792C178.683 30.288 180.475 32.08 183.099 32.08C184.427 32.08 185.595 31.6 186.347 30.704L185.707 29.968C185.067 30.704 184.155 31.072 183.131 31.072C181.291 31.072 179.947 29.904 179.819 28.144H186.859C186.859 28.016 186.875 27.888 186.875 27.792ZM182.795 24.496C184.443 24.496 185.643 25.648 185.787 27.296H179.819C179.963 25.648 181.163 24.496 182.795 24.496ZM194.275 32.08C195.699 32.08 196.899 31.504 197.571 30.416L196.723 29.84C196.147 30.688 195.251 31.072 194.275 31.072C192.435 31.072 191.091 29.776 191.091 27.792C191.091 25.824 192.435 24.512 194.275 24.512C195.251 24.512 196.147 24.912 196.723 25.76L197.571 25.184C196.899 24.08 195.699 23.52 194.275 23.52C191.763 23.52 189.939 25.28 189.939 27.792C189.939 30.304 191.763 32.08 194.275 32.08ZM204.702 32.08C207.166 32.08 208.974 30.288 208.974 27.792C208.974 25.296 207.166 23.52 204.702 23.52C202.238 23.52 200.414 25.296 200.414 27.792C200.414 30.288 202.238 32.08 204.702 32.08ZM204.702 31.072C202.91 31.072 201.566 29.76 201.566 27.792C201.566 25.824 202.91 24.512 204.702 24.512C206.494 24.512 207.822 25.824 207.822 27.792C207.822 29.76 206.494 31.072 204.702 31.072ZM217.181 23.52C215.725 23.52 214.589 24.112 213.981 25.136V23.584H212.893V32H214.029V27.584C214.029 25.664 215.165 24.544 216.973 24.544C218.573 24.544 219.501 25.456 219.501 27.232V32H220.637V27.12C220.637 24.704 219.229 23.52 217.181 23.52ZM231.897 20.128V25.184C231.193 24.096 230.041 23.52 228.697 23.52C226.297 23.52 224.505 25.248 224.505 27.792C224.505 30.336 226.297 32.08 228.697 32.08C230.089 32.08 231.257 31.472 231.945 30.336V32H233.033V20.128H231.897ZM228.793 31.072C227.001 31.072 225.657 29.76 225.657 27.792C225.657 25.824 227.001 24.512 228.793 24.512C230.569 24.512 231.913 25.824 231.913 27.792C231.913 29.76 230.569 31.072 228.793 31.072ZM240.052 32.08C242.244 32.08 243.524 31.136 243.524 29.68C243.524 26.448 238.068 28.16 238.068 25.888C238.068 25.088 238.74 24.496 240.26 24.496C241.124 24.496 242.004 24.704 242.74 25.216L243.236 24.304C242.532 23.824 241.348 23.52 240.26 23.52C238.116 23.52 236.932 24.544 236.932 25.92C236.932 29.248 242.388 27.52 242.388 29.712C242.388 30.544 241.732 31.088 240.132 31.088C238.948 31.088 237.812 30.672 237.14 30.144L236.628 31.04C237.316 31.632 238.66 32.08 240.052 32.08ZM247.337 32.08C247.801 32.08 248.201 31.696 248.201 31.2C248.201 30.704 247.801 30.336 247.337 30.336C246.873 30.336 246.489 30.704 246.489 31.2C246.489 31.696 246.873 32.08 247.337 32.08Z" fill="#1F2326"/>
</svg>
