<svg width="20" height="229" viewBox="0 0 20 229" fill="none" xmlns="http://www.w3.org/2000/svg">
<path d="M0.687984 12.552C0.687984 21.528 3.71198 23.016 6.66398 23.016L6.99998 23.016C10.552 23.016 12.184 20.304 12.304 13.584L12.352 10.584C12.424 6.936 13.12 6.456 13.888 6.456C14.656 6.456 15.424 6.768 15.424 11.088L15.424 11.472C15.424 16.152 13.96 16.512 13.288 16.632L13.288 22.44L13.528 22.44C16.216 22.44 19.168 20.52 19.168 12.072L19.168 10.416C19.168 2.28 16.384 0.696 13.72 0.695999L13.504 0.695999C10.72 0.695999 8.46399 2.736 8.27198 9.408L8.19998 12.48C8.07998 16.608 7.43198 17.16 6.39998 17.16C5.43998 17.16 4.50398 16.632 4.50398 11.928L4.50398 11.592C4.50398 6.984 6.25598 6.36 7.33598 6.288L7.33598 0.455999L7.07199 0.455999C4.71998 0.455999 0.687985 1.536 0.687984 10.896L0.687984 12.552ZM0.639983 37.5679C0.639983 45.5359 4.33598 46.8079 7.31198 46.8079L7.74398 46.8079C10.672 46.8079 14.272 45.4399 14.272 37.5679L14.272 35.8639C14.272 28.3759 10.72 26.5999 7.74398 26.5999L7.31198 26.5999C4.33598 26.5999 0.639983 28.3999 0.639983 35.8879L0.639983 37.5679ZM4.11998 36.7279C4.11998 33.0799 5.94398 32.0719 7.45598 32.0719L7.57598 32.0719C9.20798 32.0719 10.84 33.0799 10.84 36.7279L10.84 36.7519C10.84 40.3519 9.18398 41.3839 7.57598 41.3839L7.45598 41.3839C5.94398 41.3839 4.11998 40.3759 4.11998 36.7279ZM13.912 68.7137L13.912 63.3617L7.81598 63.3617C5.70398 63.3617 4.31198 61.8497 4.31198 59.5217C4.31198 57.2417 5.60798 56.2097 7.52798 56.2097L13.912 56.2097L13.912 50.8097L5.87198 50.8097C3.44798 50.8097 0.711982 52.5137 0.711982 56.9537L0.711982 57.1457C0.711982 60.8897 2.63198 62.7617 3.23198 63.4097L0.999982 63.4097L0.999982 68.7137L13.912 68.7137ZM0.999981 82.9191L4.55198 82.9191L4.55198 81.4551C4.55198 80.5191 4.98398 80.3751 5.67998 80.3751L10.36 80.3751L10.36 82.9191L13.912 82.9191L13.912 80.3751L17.68 80.3751L17.68 75.0951L13.912 75.0951L13.912 72.5751L10.36 72.5751L10.36 75.0951L4.67198 75.0951C2.43998 75.0951 0.999981 75.9591 0.999981 78.2871L0.999981 82.9191ZM0.999981 87.1342L0.999981 92.4862L7.09598 92.4862C9.20798 92.4862 10.6 94.0462 10.6 96.4462C10.6 98.8222 9.37598 99.9022 7.38398 99.9022L0.99998 99.9022L0.99998 105.302L9.15998 105.302C11.656 105.302 14.2 103.478 14.2 99.0142L14.2 98.8462C14.2 95.0062 12.328 93.0622 11.752 92.4862L18.856 92.4862L18.856 87.1342L0.999981 87.1342ZM0.999979 125.516L9.42398 125.516L0.999979 134.948L0.999979 142.244L10.696 131.492L18.856 141.764L18.856 134.66L11.416 125.516L18.856 125.516L18.856 119.924L0.999979 119.924L0.999979 125.516ZM0.639978 154.109C0.639978 162.077 4.33598 163.349 7.31198 163.349L7.74398 163.349C10.672 163.349 14.272 161.981 14.272 154.109L14.272 152.405C14.272 144.917 10.72 143.141 7.74398 143.141L7.31198 143.141C4.33598 143.141 0.639978 144.941 0.639978 152.429L0.639978 154.109ZM4.11998 153.269C4.11998 149.621 5.94398 148.613 7.45598 148.613L7.57598 148.613C9.20798 148.613 10.84 149.621 10.84 153.269L10.84 153.293C10.84 156.893 9.18398 157.925 7.57598 157.925L7.45598 157.925C5.94398 157.925 4.11998 156.917 4.11998 153.269ZM7.67198 172.75C9.32798 172.75 10.792 173.734 10.792 175.534L10.792 175.558C10.792 177.574 9.35198 178.294 7.69598 178.294L7.69598 183.454L8.43998 183.454C11.776 183.454 14.2 181.942 14.2 178.198L14.2 177.934C14.2 174.718 12.352 173.158 11.632 172.702L13.912 172.702L13.912 167.398L0.999977 167.398L0.999977 172.75L7.67198 172.75ZM11.272 196.519C11.272 199.231 10.456 200.479 9.08798 200.839L9.08798 192.199C10.456 192.607 11.272 193.807 11.272 196.495L11.272 196.519ZM5.55998 206.167L5.55998 200.887C5.24798 200.815 3.90398 200.239 3.90398 196.687L3.90398 196.663C3.90398 193.711 4.91198 192.415 6.42398 192.103L6.42398 206.239L7.31198 206.239C10.456 206.239 14.272 204.847 14.272 197.263L14.272 195.799C14.272 188.815 11.08 186.847 7.76798 186.847L7.23998 186.847C3.85598 186.847 0.639976 189.055 0.639976 195.943L0.639976 197.311C0.639976 205.015 3.78398 206.167 5.53598 206.167L5.55998 206.167ZM6.73598 221.661C5.19998 221.661 3.66398 219.813 3.66398 216.957C3.66398 215.133 4.43198 214.605 5.12798 214.605L5.15198 214.605C5.89598 214.605 6.13598 215.181 6.35198 216.549L7.14398 221.661L6.73598 221.661ZM2.77598 221.805C1.55198 221.997 0.999975 222.813 0.999975 223.845L0.999975 228.189L4.50398 228.189L4.50398 227.493C4.50398 226.941 4.76797 226.821 5.15198 226.821L10.096 226.821C11.968 226.821 14.272 226.341 14.272 218.853L14.272 217.533C14.272 210.333 11.608 209.829 9.90398 209.829L9.85598 209.829L9.85598 214.797C10.288 214.869 11.296 214.989 11.296 218.181L11.296 218.301C11.296 221.445 10.72 221.661 10.24 221.661C9.83198 221.661 9.63998 221.445 9.56798 220.845L9.01598 214.941C8.65598 211.077 7.52798 209.517 5.15198 209.517L4.98398 209.517C2.77598 209.517 0.759975 211.173 0.759975 215.517L0.759975 215.829C0.759975 219.621 2.07998 221.253 2.77598 221.805Z" fill="#FF4656"/>
</svg>
